<svg viewBox="0 0 570 441" fill="none" xmlns="http://www.w3.org/2000/svg">
  <g opacity="0.2">
    <path d="M295.134 440.355C289.955 440.355 283.769 438.998 275.532 435.926C253.671 427.595 231.254 402.574 207.585 376.114C194.552 361.583 181.102 346.553 167.582 334.237C147.841 311.984 114.372 296.65 81.9799 281.787C58.3116 270.937 35.964 260.668 18.6558 247.992L18.6211 247.964C5.62261 238.111 -0.459559 228.589 0.0270143 218.874C0.965406 199.915 26.9276 183.031 57.0256 163.491L59.9103 161.609C82.2232 147.05 110.236 127.564 150.795 98.4748L154.236 96.0945C190.521 70.9628 235.702 39.6866 294.23 20.7271C411.46 -23.198 514.057 10.8183 546.449 47.6855C580.231 90.7803 577.312 136.532 535.328 222.639C491.362 312.399 393.978 381.788 354.148 407.445C337.848 415.915 327.63 423.416 320.192 428.896C310.739 435.815 304.587 440.355 295.134 440.355ZM21.7143 245.335C38.6401 257.734 60.7792 267.892 84.2042 278.659C116.978 293.688 150.9 309.243 171.058 331.995C184.612 344.312 198.132 359.424 211.2 374.01C234.555 400.083 256.625 424.716 277.409 432.66C297.949 440.271 302.78 436.729 317.134 426.211C324.711 420.648 335.102 413.009 351.507 404.484C390.85 379.103 487.539 310.24 531.122 221.282C572.516 136.421 575.539 91.4999 542.696 49.623C511.242 13.8629 411.043 -19.1293 296.038 23.9654C238.101 42.7588 193.231 73.8136 157.19 98.7516L153.784 101.132C113.19 130.249 85.1426 149.762 62.7602 164.349L59.8756 166.231C30.6116 185.218 5.37933 201.631 4.51045 218.958C4.09338 227.621 9.72372 236.229 21.7143 245.335Z" fill="#CCCCCC"/>
  </g>
  <g opacity="0.2" transform="translate(44.51, 42.28)">
    <path d="M243.88 372.993C236.721 372.993 229.144 371.167 218.718 367.928L218.509 367.873C198.49 359.874 182.642 340.582 165.89 320.184C154.455 306.234 142.604 291.841 128.354 279.303C108.265 258.96 82.9984 243.128 58.6002 227.822C42.1957 217.553 26.6949 207.838 13.1751 197.099L12.9318 196.878C-14.5943 167.013 5.14663 153.838 40.9445 129.897C44.8371 127.295 48.9383 124.555 53.2131 121.621C61.6239 116.667 70.5908 111.131 80.1137 105.263C122.411 79.163 180.383 43.4306 262.162 14.4239C362.118 -16.0496 439.344 5.98213 471.597 41.327C503.919 78.1666 491.373 122.507 455.053 196.573C415.259 271.47 342.62 319.962 303.59 346.007L299.246 348.914C270.225 366.074 257.783 372.993 243.88 372.993ZM220.455 364.607C248.92 373.409 253.751 371.305 296.465 346.118L300.705 343.295C339.423 317.444 411.505 269.311 450.883 195.273C486.611 122.451 499.088 78.9415 467.948 43.4582C436.737 9.24813 361.527 -11.981 263.899 17.773C182.711 46.5582 125.018 82.1522 82.8594 108.114C73.3364 113.982 64.3696 119.518 56.0283 124.444C51.8577 127.295 47.7566 130.035 43.864 132.665C8.03131 156.634 -8.37316 167.594 16.4768 194.664C29.7881 205.209 45.15 214.813 61.3807 224.999C86.0221 240.415 111.463 256.386 131.795 276.978C146.183 289.627 158.139 304.158 169.678 318.219C186.048 338.147 201.549 356.996 220.455 364.607Z" fill="#CCCCCC"/>
  </g>
  <g opacity="0.2" transform="translate(84.07, 79.33)">
    <path d="M198.489 315.02C189.349 315.02 180.868 312.418 170.303 307.99C152.647 299.52 138.467 282 123.453 263.483C114.555 252.468 105.31 241.092 94.7448 230.657C79.9738 214.272 62.4572 200.267 45.5662 186.704C31.6988 175.578 18.596 165.088 8.27373 154.266L8.13473 154.1C-12.7879 126.034 8.82983 112.942 48.1033 89.1669L48.5551 88.8901L55.8189 84.9321C97.1777 62.4852 153.829 31.7348 231.437 9.45399C323.052 -13.8233 381.371 9.89686 403.511 37.2428C427.179 66.4155 421.375 105.58 383.492 172.423C355.896 219.005 310.853 260.882 249.649 296.891C225.981 309.678 211.557 315.02 198.489 315.02ZM11.923 152.135C22.0716 162.735 35.0353 173.142 48.7636 184.13C65.7937 197.776 83.4146 211.919 98.3246 228.443C108.994 238.933 118.274 250.419 127.241 261.518C141.942 279.703 155.845 296.863 172.527 304.862C196.578 314.992 208.568 314.799 247.042 293.957C307.586 258.308 352.142 216.901 379.39 170.9C416.544 105.331 422.452 67.1628 399.722 39.1526C376.749 10.7825 316.275 -8.3707 232.862 12.803C155.879 34.9178 99.5063 65.5021 58.3561 87.866L50.8142 91.99C11.2627 115.932 -6.8448 126.892 11.923 152.135Z" fill="#CCCCCC"/>
  </g>
  <g opacity="0.2" transform="translate(118.69, 112.68)">
    <path d="M160.607 262.637C150.389 262.637 140.797 259.841 130.092 254.361L130.023 254.333C113.896 245.531 100.898 228.98 87.1346 211.487C80.7744 203.378 74.1709 195.019 67.0113 187.048C57.4536 175.368 46.8532 164.573 36.6004 154.166C24.019 141.379 12.098 129.284 4.31283 117.548C-9.27647 92.7761 10.6035 79.8228 44.9417 61.3615C80.3226 43.9243 134.993 19.0694 202.001 4.4C265.985 -6.08999 313.913 2.32416 337.094 28.0648C362.118 55.7982 355.897 99.7787 320.03 148.741C282.459 206.367 223.062 240.162 205.754 249.13C187.334 258.208 173.467 262.637 160.607 262.637ZM132.525 251.344C152.544 261.557 168.253 263.384 203.321 246.085C220.351 237.256 278.984 203.904 316.067 146.998C351.031 99.2528 357.357 56.6839 333.41 30.1683C311.306 5.64551 265.012 -2.24272 203.009 7.91513C136.696 22.4461 82.4079 47.1073 47.3399 64.4061C11.9938 83.3933 -3.40286 94.6859 8.30967 116.026C15.8516 127.346 27.6336 139.303 40.1108 151.98C50.4331 162.47 61.1029 173.292 70.6954 185.055C77.8897 193.026 84.4932 201.468 90.8882 209.605C104.443 226.738 117.198 242.957 132.525 251.344Z" fill="#CCCCCC"/>
  </g>
  <g opacity="0.2" transform="translate(148.36, 140.1)">
    <path d="M128.778 217.827C117.934 217.827 107.959 214.866 97.6022 208.943L97.3241 208.749C57.6684 176.781 10.7835 103.572 1.7819 89.235L1.6429 88.9029C-5.37766 68.3658 10.4707 56.2981 42.1328 41.2136C71.9528 27.8728 119.046 10.2695 174.238 2.04907C225.05 -4.31689 263.107 4.26331 281.458 26.212C301.824 50.5964 295.603 87.6574 264.427 127.901C236.971 166.706 196.516 194.633 167.808 207.808C152.794 214.506 140.282 217.827 128.778 217.827ZM100.383 206.12C120.228 217.385 137.918 216.997 165.549 204.68C193.735 191.755 233.461 164.298 260.535 126.075C290.355 87.5743 296.75 51.0116 277.704 28.2049C260.396 7.47397 223.903 -0.580349 175.002 5.59186C120.471 13.7292 73.8991 31.1664 44.3919 44.3412C14.0853 58.7615 -0.199139 69.4729 5.91779 87.8235C31.7757 129.008 70.1108 181.652 100.383 206.12Z" fill="#CCCCCC"/>
  </g>
  <g opacity="0.2" transform="translate(174.32, 163.68)">
    <path d="M101.228 178.226C89.62 178.226 79.5758 175.154 71.9644 169.203C41.5188 145.704 9.82201 96.1326 0.472851 66.3233C-1.05638 59.4315 1.13317 52.7057 6.90254 46.2844C24.6972 26.4946 77.421 9.41719 147.974 0.615557C187.769 -2.45671 217.45 6.04049 231.63 24.5571C247.687 45.5371 241.918 76.066 215.816 108.283C181.86 149.053 141.232 175.071 107.137 177.949C105.121 178.143 103.14 178.226 101.228 178.226ZM163.475 3.57713C158.679 3.57713 153.709 3.77088 148.565 4.18605C79.3325 12.8216 27.6862 29.3454 10.6214 48.388C5.54711 54.0343 3.63557 59.819 4.92152 65.6037C14.0969 94.8041 45.2376 143.573 75.1618 166.656C83.0513 172.801 93.9645 175.486 106.685 174.406C139.459 171.638 178.872 146.202 212.063 106.346C236.809 75.7892 242.717 45.9246 227.807 26.4392C216.372 11.5207 193.816 3.57713 163.475 3.57713Z" fill="#CCCCCC"/>
  </g>
  <g opacity="0.2" transform="translate(196.58, 183.86)">
    <path d="M79.9028 142.821C69.1287 142.821 59.6405 140.053 52.2376 134.683C25.8236 115.613 1.39065 75.286 0.000436629 48.4106V48.3552C-0.17334 23.5834 51.5425 3.23996 122.93 0.0293012C153.341 -0.551939 175.897 7.53006 186.497 22.8637C198.662 40.4393 193.657 64.8237 172.769 89.7893C146.946 120.125 114.623 139.831 86.263 142.516C84.0734 142.71 81.9534 142.821 79.9028 142.821ZM4.51863 48.2999C5.90884 74.3726 29.6119 113.509 55.2961 132.026C63.116 137.7 73.6121 140.08 85.7069 138.946C112.781 136.372 143.922 117.246 169.015 87.7688C188.93 63.9657 193.865 40.9098 182.535 24.5521C172.769 10.4639 151.707 2.99085 123.104 3.57209C55.4003 6.64436 4.37961 25.8806 4.51863 48.2999Z" fill="#CCCCCC"/>
  </g>
  <g opacity="0.2" transform="translate(215.12, 201.08)">
    <path d="M62.1341 111.181C52.7154 111.181 44.3046 108.884 37.5273 104.372C13.72 88.6232 -3.20586 56.7381 0.512953 34.7063C4.54456 13.5603 47.8844 -1.60734 99.0441 0.136382C121.496 1.16047 138.04 8.52287 145.686 20.8396C154.444 34.9554 150.447 53.6935 134.668 72.2101C116.039 93.8821 91.4675 108.302 68.9461 110.793C66.6175 111.07 64.3584 111.181 62.1341 111.181ZM90.9462 3.59614C45.5558 3.59614 8.47194 16.9647 4.99641 35.2322C1.52088 55.797 18.0644 86.8242 40.412 101.632C47.7801 106.503 57.4073 108.441 68.3205 107.251C89.6255 104.898 113.016 91.0312 130.949 70.1896C145.79 52.7801 149.683 35.3706 141.654 22.4172C134.773 11.3183 119.55 4.67561 98.8356 3.70688C96.1942 3.65152 93.5528 3.59614 90.9462 3.59614Z" fill="#CCCCCC"/>
  </g>
  <g opacity="0.2" transform="translate(232.43, 215.89)">
    <path d="M46.9518 82.5856C39.3752 82.5856 32.4937 80.8419 26.7243 77.4375C6.74003 65.619 -4.48591 41.8435 1.70053 24.434C7.99123 7.2182 40.6611 -3.13342 76.0072 0.852228C91.6818 2.70666 103.186 8.90658 108.399 18.3171C114.308 28.9732 111.388 42.4801 100.405 55.3781C87.7893 70.1028 70.8635 79.8455 53.9724 82.0874C51.609 82.4196 49.2457 82.5856 46.9518 82.5856ZM6.04493 25.4304C0.414582 41.2346 11.1192 63.7368 29.4005 74.559C35.8997 78.4062 44.1367 79.7901 53.2426 78.5723C68.7087 76.4964 84.9741 67.0859 96.7214 53.3853C106.8 41.539 109.546 29.3053 104.298 19.7841C99.7451 11.536 89.4575 6.08341 75.3817 4.42272C42.7465 0.713861 11.6405 10.1521 6.04493 25.4304Z" fill="#CCCCCC"/>
  </g>
  <g opacity="0.2" transform="translate(248.5, 229.51)">
    <path d="M32.6249 55.6276C27.3768 55.6276 22.3026 54.5482 17.8539 52.2232C2.97864 44.5564 -3.97242 28.2816 2.31828 15.9649C8.64374 3.7035 31.1999 -2.91154 52.6439 1.24017C62.5492 3.14996 69.7783 7.82753 73.0105 14.3596C76.5555 21.5559 74.7482 30.3021 68.0752 38.3288C58.8651 49.3447 45.2063 55.6276 32.6249 55.6276ZM20.2867 49.234C33.1114 55.849 52.8525 50.092 64.3217 36.3636C70.1606 29.3334 71.8288 21.7773 68.8051 15.6881C66.1289 10.2632 60.012 6.3606 51.5665 4.7276C32.2078 0.991054 11.9803 6.63739 6.48896 17.3211C0.962871 28.1433 7.14926 42.4528 20.2867 49.234Z" fill="#CCCCCC"/>
  </g>
  <g opacity="0.2" transform="translate(264.57, 242.61)">
    <path d="M17.8607 29.4365C15.0108 29.4365 12.2303 28.9105 9.6932 27.8034C1.00438 24.0115 -2.50586 15.2929 1.90805 8.34572C6.25246 1.48156 18.1735 -1.81212 28.4263 1.01104C33.3615 2.36727 36.9761 5.07974 38.5401 8.67789C40.2083 12.4698 39.409 16.8982 36.3157 20.8009C31.9018 26.3088 24.777 29.4365 17.8607 29.4365ZM20.6411 3.58509C14.3504 3.58509 8.40728 5.99312 5.87015 9.97876C2.5684 15.2099 5.20977 21.7973 11.8133 24.6481C18.382 27.5266 27.6617 24.9249 32.4579 18.8634C34.856 15.8465 35.4816 12.6635 34.2304 9.84036C33.1182 7.29398 30.5116 5.35652 26.897 4.36011C24.8465 3.83423 22.7264 3.58509 20.6411 3.58509Z" fill="#CCCCCC"/>
  </g>
</svg>
