<svg viewBox="0 0 1920 829" preserveAspectRatio="xMidYMid meet" fill="none" xmlns="http://www.w3.org/2000/svg">
  <svg x="-292.03" y="351.08" width="2577.758" height="388.178" viewBox="0 0 2577.76 388.178" opacity="0.3">
    <path d="M940.632 388.178C931.161 388.178 921.942 387.731 913.083 386.84C894.502 384.969 877.336 381.127 862.061 375.421C845.643 369.291 831.243 360.936 819.258 350.592C795.171 329.801 783.12 304.901 771.465 280.821C769.175 276.092 766.808 271.203 764.404 266.459C748.004 234.126 727.214 205.803 700.851 179.873C648.262 128.148 574.303 84.0045 486.968 52.2149C385.965 15.4523 277.371 -2.8607 181.187 0.65045C124.655 2.71532 49.9598 22.3492 16.5769 55.8801C-3.23445 75.7803 -4.83195 97.8642 11.9603 119.741L11.6268 119.834C2.82218 108.36 -1.01405 96.8582 0.228055 85.6467C1.36757 75.362 6.76101 65.3085 16.2618 55.7656C31.3723 40.5873 56.2913 27.1349 88.3258 16.8612C117.927 7.36897 150.896 1.53319 181.165 0.428112C231.501 -1.40781 285.036 2.66689 340.282 12.5421C390.362 21.495 439.779 34.778 487.158 52.0233C574.545 83.8306 648.548 127.999 701.167 179.754C727.544 205.702 748.345 234.04 764.756 266.391C767.163 271.135 769.53 276.026 771.816 280.755C783.461 304.817 795.504 329.699 819.559 350.46C842.821 370.541 874.31 382.706 913.145 386.615C966.925 392.031 1032.23 380.705 1087.84 356.316C1167.97 321.171 1223.58 270.016 1277.37 220.548C1286.79 211.876 1296.54 202.91 1306.19 194.253C1331.25 171.77 1365.18 142.637 1405.51 116.684C1446.73 90.1551 1488.61 70.6643 1533.56 57.0952C1561.08 48.7895 1590.23 43.1937 1620.23 40.464C1647.93 37.9413 1677.25 37.785 1707.38 39.9952C1759.07 43.7881 1814.74 54.5021 1877.6 72.7468C2001.37 108.675 2125.01 152.284 2245.08 202.364C2359.21 249.964 2471.14 303.827 2577.76 362.451L2577.51 362.614C2356.49 241.088 2120.95 143.63 1877.44 72.9449C1739.87 33.0103 1630.65 28.0352 1533.73 57.2911C1435.13 87.0534 1366.25 140.764 1306.5 194.374C1296.85 203.029 1287.1 211.995 1277.67 220.666C1223.88 270.153 1168.25 321.323 1088.06 356.492C1062.15 367.858 1033 376.722 1003.76 382.127C988.316 384.982 972.964 386.849 958.124 387.676C952.211 388.013 946.374 388.178 940.632 388.178Z" fill="#FFE492"/>
  </svg>
  <svg x="-294.91" y="341.47" width="2576.749" height="385.484" viewBox="0 0 2576.75 385.484" opacity="0.3">
    <path d="M952.774 385.484C928.62 385.484 906.248 382.722 886.253 377.269C863.958 371.189 844.718 361.767 829.065 349.268C827.68 348.16 826.306 347.016 824.98 345.862C801.149 325.161 788.563 300.585 776.395 276.817C773.933 272.014 771.39 267.045 768.811 262.224C753.447 233.519 734.948 208.218 712.249 184.882C709.453 182.009 706.559 179.13 703.639 176.325C650.276 125.045 575.717 81.4604 488.022 50.2826C386.29 14.1475 277.388 -3.40826 181.376 0.851352C125.254 3.36749 50.9039 23.3227 17.3781 56.5961C-2.69712 76.5205 -4.96879 98.6485 10.8012 120.589L10.4641 120.677C2.19802 109.178 -1.1985 97.6535 0.373365 86.4288C1.81699 76.1199 7.43024 66.0443 17.063 56.4816C32.3273 41.3298 57.173 27.8619 88.9071 17.5354C118.238 7.99032 151.064 1.98725 181.343 0.631217C231.617 -1.59875 285.211 2.08632 340.633 11.5829C390.834 20.1858 440.485 33.1429 488.205 50.0933C575.951 81.2887 650.551 124.9 703.946 176.209C706.867 179.015 709.765 181.897 712.56 184.772C735.274 208.124 753.784 233.437 769.155 262.158C771.738 266.979 774.281 271.947 776.743 276.753C788.908 300.506 801.483 325.064 825.28 345.737C826.603 346.886 827.977 348.031 829.359 349.136C861.705 374.973 906.149 385.484 952.887 385.484C953.144 385.484 953.397 385.484 953.653 385.484C953.36 385.482 953.067 385.484 952.774 385.484ZM962.744 385.33C1006.2 383.99 1051.03 373.958 1089.5 359.035C1172.47 326.713 1232.1 276.79 1289.77 228.513C1292.15 226.523 1294.52 224.537 1296.9 222.551C1302.11 218.193 1308.29 213.033 1314.6 207.831C1342.9 184.503 1377.16 157.361 1416.61 132.93C1458.58 106.934 1500.52 87.6439 1544.81 73.9538C1572.02 65.5512 1600.78 59.6318 1630.28 56.3606C1657.62 53.3293 1686.51 52.473 1716.14 53.8136C1767.33 56.1316 1822.37 64.9194 1884.41 80.6811C1944.9 96.0245 1994.62 110.468 2040.89 126.135C2106.43 148.351 2168.86 173.948 2221.29 196.056C2343.18 247.603 2462.77 306.134 2576.75 370.026L2576.5 370.187C2462.53 306.304 2342.95 247.777 2221.08 196.237C2168.66 174.131 2106.24 148.538 2040.71 126.328C1994.46 110.666 1944.75 96.227 1884.27 80.888C1749.13 46.5514 1641.31 44.4095 1544.98 74.1519C1444.99 105.054 1373.79 159.426 1314.9 207.963C1308.58 213.165 1302.41 218.323 1297.19 222.684C1294.82 224.667 1292.44 226.655 1290.07 228.645C1232.38 276.938 1172.72 326.878 1089.69 359.224C1069.11 367.211 1047.2 373.555 1024.58 378.079C1003.52 382.286 982.764 384.718 962.744 385.33Z" fill="#FFE492"/>
  </svg>
  <svg x="-297.79" y="331.77" width="2575.783" height="383.106" viewBox="0 0 2575.78 383.106" opacity="0.3">
    <path d="M965.903 383.106C962.997 383.106 960.11 383.069 957.245 382.991C933.114 382.351 910.781 379.025 890.871 373.101C869.096 366.622 850.23 357.027 834.801 344.578C833.43 343.468 832.064 342.322 830.745 341.168C807.181 320.568 794.071 296.32 781.398 272.873C778.756 267.986 776.022 262.932 773.252 258.028C757.131 229.419 738.144 204.321 715.2 181.299C712.36 178.453 709.421 175.598 706.457 172.816C652.321 121.982 577.161 78.9566 489.107 48.3909C386.65 12.8831 277.441 -3.91757 181.597 1.09049C127.633 3.95445 53.4992 22.7716 18.2513 57.3151C-2.11337 77.2726 -5.07757 99.46 9.67744 121.478L9.33672 121.559C1.60563 110.024 -1.34394 98.4738 0.561355 87.2293C2.31276 76.8873 8.16056 66.7853 17.9398 57.2007C33.3654 42.084 58.1305 28.6117 89.5605 18.2368C118.616 8.64551 151.292 2.47955 181.564 0.872563C231.779 -1.74924 285.432 1.54397 341.026 10.662C391.351 18.917 441.233 31.5461 489.291 48.2015C577.396 78.7871 652.596 121.837 706.765 172.699C709.729 175.484 712.671 178.339 715.511 181.189C738.466 204.224 757.464 229.337 773.593 257.961C776.363 262.868 779.096 267.923 781.738 272.81C794.408 296.243 807.507 320.473 831.041 341.049C832.36 342.203 833.72 343.347 835.09 344.453C897.785 395.035 1008.89 389.604 1091.19 361.786C1177.62 332.312 1241.86 283.325 1303.98 235.952L1304.62 235.466C1310.63 230.874 1316.85 226.128 1323.05 221.441C1388.39 171.999 1460.21 121.187 1556.09 90.8417C1583.01 82.3401 1611.38 76.0971 1640.39 72.2865C1667.37 68.7423 1695.82 67.186 1724.95 67.6615C1775.73 68.4892 1830.13 75.353 1891.27 88.6448C1955.52 102.564 2003.87 115.358 2048.05 130.131C2110.98 151.222 2171.95 177.874 2225.74 201.389C2345.5 254.025 2463.27 313.321 2575.78 377.625L2575.53 377.783C2463.03 313.486 2345.26 254.197 2225.52 201.565C2171.74 178.055 2110.79 151.407 2047.87 130.323C2003.71 115.554 1955.38 102.764 1891.15 88.8495C1758.62 60.0382 1652.21 60.7316 1556.26 91.0332C1460.44 121.359 1388.65 172.149 1323.33 221.573C1317.14 226.26 1310.92 231.008 1304.9 235.598L1304.26 236.084C1273.31 259.692 1241.3 284.103 1206.73 305.907C1167.89 330.41 1130.15 348.75 1091.37 361.973C1050.79 375.687 1006.59 383.106 965.903 383.106Z" fill="#FFE492"/>
  </svg>
  <svg x="-300.67" y="322.07" width="2574.863" height="385.43" viewBox="0 0 2574.86 385.43" opacity="0.3">
    <path d="M2574.6 385.43C2463.56 320.719 2347.62 260.669 2230 206.947C2225.02 204.688 2220.03 202.419 2215.02 200.143C2164.08 176.98 2111.4 153.029 2055.07 134.371C2000.42 116.32 1945.04 105.282 1898.06 96.8662C1768.4 73.4923 1663.4 77.0211 1567.59 107.968C1469.25 139.83 1393.04 192.731 1331.81 235.239C1328.14 237.79 1324.47 240.346 1320.8 242.904C1318.08 244.793 1315.37 246.681 1312.65 248.568C1277.79 272.796 1246.08 294.457 1211.04 314.223C1171.01 336.802 1132.43 353.339 1093.08 364.779C1056.21 375.502 1016.81 381.175 980.174 381.177C973.498 381.177 966.921 380.99 960.458 380.609C936.862 379.22 915.017 375.317 895.531 369.008C874.269 362.124 855.777 352.346 840.56 339.944C839.201 338.832 837.845 337.683 836.533 336.527C813.248 316.035 799.629 292.128 786.461 269.01C783.625 264.03 780.69 258.879 777.722 253.88C760.831 225.361 741.353 200.464 718.182 177.764C715.298 174.939 712.312 172.111 709.307 169.352C654.395 118.966 578.637 76.4994 490.228 46.5434C387.046 11.663 277.532 -4.37821 181.857 1.37171C116.45 5.38037 49.5672 28.6838 19.2072 58.0388C-1.47625 78.0381 -5.14397 100.296 8.59245 122.406L8.24805 122.483C1.05557 110.906 -1.45065 99.3208 0.799064 88.0476C2.86924 77.6683 8.95885 67.5332 18.8957 57.9222C34.4824 42.8495 59.167 29.3773 90.2818 18.9649C119.059 9.33399 151.566 3.00732 181.82 1.15378C231.977 -1.86207 285.684 1.04151 341.451 9.78087C391.897 17.6881 442.017 29.9915 490.411 46.3497C578.876 76.3232 654.673 118.814 709.619 169.231C712.627 171.992 715.613 174.823 718.497 177.647C741.683 200.36 761.168 225.271 778.07 253.803C781.038 258.804 783.973 263.953 786.809 268.935C799.97 292.04 813.582 315.931 836.837 336.399C838.149 337.553 839.501 338.7 840.857 339.809C906.307 393.157 1017.55 386.493 1092.92 364.579C1182.85 338.431 1251.66 290.614 1312.38 248.423C1315.09 246.534 1317.81 244.645 1320.52 242.758C1324.19 240.2 1327.86 237.645 1331.54 235.093C1366.49 210.83 1401.01 187.251 1438.95 165.524C1482.58 140.537 1524.61 121.647 1567.43 107.774C1594.06 99.1689 1622.02 92.6022 1650.53 88.259C1677.18 84.1975 1705.19 81.9433 1733.8 81.5558C1784.25 80.8734 1838.02 85.8133 1898.17 96.6549C1945.16 105.075 2000.57 116.117 2055.25 134.179C2111.61 152.844 2164.29 176.802 2215.25 199.969C2220.25 202.245 2225.25 204.514 2230.23 206.773C2347.85 260.499 2463.81 320.556 2574.86 385.274L2574.6 385.43Z" fill="#FFE492"/>
  </svg>
  <svg x="-303.74" y="312.28" width="2573.969" height="393.108" viewBox="0 0 2573.97 393.108" opacity="0.3">
    <path d="M2573.72 393.108C2462.04 326.747 2347.92 265.932 2234.53 212.358C2227.74 209.153 2220.81 205.848 2214.09 202.654C2166.02 179.778 2116.31 156.122 2062.31 138.448C2008.4 120.861 1952.55 111.624 1905.02 104.91C1778.52 86.8655 1674.91 93.2274 1578.97 124.931C1487.45 155.281 1415.76 200.92 1346.43 245.055L1338.81 249.9C1332.8 253.728 1326.58 257.684 1320.45 261.565C1251.05 305.446 1181.57 346.574 1094.84 367.61C1073.79 372.715 1052.18 376.253 1030.6 378.13C1007.43 380.145 984.916 380.173 963.69 378.214C940.636 376.085 919.286 371.614 900.233 364.925C879.498 357.645 861.376 347.688 846.375 335.334C845.023 334.216 843.679 333.064 842.378 331.911C819.379 311.54 805.269 287.985 791.624 265.206C788.579 260.123 785.428 254.866 782.248 249.761C764.572 221.331 744.611 196.634 721.22 174.259C718.296 171.463 715.266 168.657 712.213 165.92C656.528 115.981 580.173 74.0735 491.401 44.7273C387.489 10.4787 277.668 -4.80746 182.158 1.68872C117.348 6.19048 50.7694 29.6569 20.2554 58.7565C-0.772447 78.8064 -5.16558 101.15 7.54857 123.373L7.20047 123.445C0.5466 111.818 -1.50889 100.188 1.0889 88.882C3.48517 78.4586 9.82758 68.284 19.9403 58.642C35.6956 43.62 60.2922 30.161 91.0773 19.7178C119.569 10.0516 151.9 3.57307 182.114 1.47298C232.212 -1.93471 285.974 0.577041 341.916 8.93777C392.487 16.4972 442.838 28.4725 491.573 44.5358C580.397 73.8974 656.795 115.831 712.514 165.799C715.566 168.538 718.6 171.347 721.524 174.142C744.929 196.528 764.902 221.238 782.585 249.684C785.765 254.789 788.916 260.048 791.961 265.131C805.598 287.897 819.701 311.441 842.675 331.788C843.972 332.937 845.316 334.086 846.665 335.204C910.54 387.81 1016.67 386.333 1094.7 367.408C1181.36 346.389 1250.81 305.277 1320.18 261.415C1326.31 257.534 1332.53 253.578 1338.54 249.75L1346.16 244.905C1380.19 223.241 1415.38 200.838 1453.6 179.998C1496.89 156.395 1537.83 138.32 1578.78 124.738C1605.15 116.025 1632.71 109.134 1660.71 104.261C1687.03 99.6774 1714.61 96.7232 1742.68 95.4794C1792.91 93.2539 1846.04 96.2697 1905.1 104.694C1952.65 111.413 2008.53 120.652 2062.48 138.254C2116.51 155.935 2166.23 179.597 2214.32 202.48C2221.03 205.675 2227.97 208.977 2234.75 212.184C2348.16 265.763 2462.29 326.581 2573.97 392.95L2573.72 393.108Z" fill="#FFE492"/>
  </svg>
  <svg x="-306.82" y="302.5" width="2573.13" height="400.832" viewBox="0 0 2573.13 400.832" opacity="0.3">
    <path d="M2572.87 400.832C2462.15 333.733 2349.86 272.157 2239.1 217.816C2230.77 213.733 2222.24 209.486 2213.99 205.381C2168.5 182.751 2121.47 159.351 2069.59 142.574C2015.93 125.289 1959.83 117.926 1912.02 113.004C1789.02 100.145 1686.82 109.343 1590.38 141.945C1506.21 170.516 1437.11 211.008 1370.29 250.165C1363.25 254.286 1355.98 258.546 1348.9 262.673C1340.57 267.521 1334.22 271.204 1328.29 274.611C1296.51 292.852 1258.69 313.855 1218.99 331.325C1176.92 349.836 1136.9 362.648 1096.63 370.493C1075.46 374.618 1053.94 377.22 1032.67 378.224C1009.83 379.303 987.722 378.51 966.954 375.867C944.453 373.003 923.601 367.964 904.97 360.891C884.766 353.221 867.021 343.086 852.226 330.772C850.892 329.656 849.555 328.502 848.258 327.344C825.563 307.11 810.98 283.918 796.874 261.491C793.602 256.289 790.22 250.911 786.809 245.688C768.338 217.336 747.889 192.842 724.289 170.8C721.322 168.028 718.247 165.248 715.151 162.534C658.692 113.041 581.737 71.693 492.606 42.9566C387.972 9.33761 277.843 -5.18908 182.501 2.04896C128.252 6.25794 57.3969 25.6474 21.3942 59.4733C-0.0110155 79.5849 -5.14799 102.03 6.54391 124.38L6.1958 124.446C0.0805467 112.759 -1.51696 101.079 1.44357 89.7287C4.17693 79.2525 10.7832 69.0338 21.0864 59.3545C37.0102 44.3941 61.5152 30.9571 91.9596 20.4919C120.165 10.7971 152.302 4.17105 182.457 1.83101C232.497 -1.96852 286.318 0.151383 342.429 8.13347C393.12 15.3451 443.706 26.9946 492.778 42.7629C581.96 71.5147 658.96 112.887 715.452 162.408C718.548 165.123 721.626 167.907 724.593 170.681C748.204 192.734 768.664 217.242 787.146 245.606C790.561 250.832 793.942 256.21 797.214 261.412C811.31 283.828 825.889 307.006 848.558 327.219C849.855 328.375 851.189 329.526 852.523 330.64C905.662 374.874 996.878 389.693 1096.52 370.28C1186.76 352.7 1260.37 313.298 1328.03 274.448C1333.96 271.041 1340.32 267.358 1348.64 262.51C1355.73 258.383 1363 254.123 1370.03 250.002C1402.93 230.725 1436.95 210.792 1473.23 192.127C1514.26 171.018 1552.52 154.539 1590.2 141.749C1616.31 132.921 1643.48 125.708 1670.94 120.31C1696.95 115.196 1724.09 111.544 1751.61 109.451C1801.72 105.642 1854.21 106.732 1912.08 112.781C1959.92 117.708 2016.06 125.074 2069.77 142.374C2121.68 159.161 2168.72 182.568 2214.22 205.205C2222.47 209.31 2231 213.557 2239.33 217.64C2350.09 271.987 2462.4 333.568 2573.13 400.671L2572.87 400.832Z" fill="#FFE492"/>
  </svg>
  <svg x="-309.89" y="292.72" width="2572.337" height="408.585" viewBox="0 0 2572.34 408.585" opacity="0.3">
    <path d="M2572.07 408.585C2462.32 340.744 2351.84 278.404 2243.71 223.302C2234.51 218.615 2225.06 213.695 2215.93 208.938C2172.4 186.278 2127.39 162.846 2076.93 146.726C2023.23 129.648 1967 124.2 1919.07 121.122C1801.65 113.38 1697.88 125.765 1601.84 158.983C1525.37 185.553 1459.82 221.099 1396.42 255.475C1383.61 262.418 1370.38 269.599 1357.5 276.443C1349.63 280.632 1342.65 284.31 1336.17 287.687C1306.01 303.374 1265.89 323.488 1223.02 339.925C1179.95 356.44 1139.21 367.391 1098.48 373.403C1054.05 379.961 1009.71 380.01 970.258 373.546C948.321 369.952 927.964 364.347 909.75 356.887C890.086 348.832 872.718 338.521 858.124 326.244C856.802 325.126 855.475 323.97 854.185 322.812C831.813 302.731 816.776 279.921 802.237 257.863C798.719 252.527 795.085 247.011 791.417 241.65C772.137 213.374 751.201 189.078 727.41 167.377C724.398 164.63 721.28 161.873 718.14 159.183C660.908 110.137 583.356 69.3464 493.865 41.2242C388.51 8.23695 278.073 -5.5325 182.896 2.44739C118.395 7.97278 53.9923 31.175 22.6429 60.18C0.827325 80.3641 -5.0681 102.926 5.59421 125.426L5.24248 125.485C-0.330502 113.728 -1.46638 101.986 1.86421 90.5872C4.94199 80.0516 11.8304 69.78 22.3351 60.0589C38.4275 45.169 62.8372 31.7628 92.9262 21.2887C120.835 11.5742 152.771 4.80284 182.845 2.22726C232.826 -1.96411 286.705 -0.233853 342.988 7.3674C393.805 14.2312 444.625 25.555 494.034 41.026C583.575 69.1659 661.172 109.979 718.441 159.056C721.581 161.746 724.699 164.504 727.714 167.254C751.516 188.968 772.463 213.275 791.754 241.565C795.422 246.925 799.057 252.444 802.574 257.78C817.106 279.826 832.135 302.626 854.486 322.686C855.776 323.844 857.098 324.996 858.421 326.114C910.648 370.062 1000.35 387.659 1098.39 373.19C1187.76 359.997 1265.37 324.219 1335.93 287.522C1342.41 284.145 1349.39 280.469 1357.26 276.28C1370.13 269.436 1383.37 262.257 1396.17 255.314C1459.58 220.931 1525.14 185.377 1601.65 158.796C1627.54 149.843 1654.3 142.308 1681.21 136.395C1706.94 130.742 1733.65 126.39 1760.58 123.46C1810.68 118.012 1862.54 117.177 1919.1 120.906C1967.06 123.986 2023.34 129.437 2077.1 146.534C2127.6 162.666 2172.62 186.106 2216.16 208.775C2225.3 213.533 2234.75 218.45 2243.95 223.137C2352.09 278.243 2462.58 340.588 2572.34 408.433L2572.07 408.585Z" fill="#FFE492"/>
  </svg>
  <svg x="-312.96" y="282.85" width="2571.585" height="416.384" viewBox="0 0 2571.59 416.384" opacity="0.3">
    <path d="M2571.33 416.384C2462.55 347.795 2353.89 284.695 2248.37 228.836C2238.68 223.702 2228.7 218.267 2219.06 213.01C2177.12 190.158 2133.76 166.527 2084.31 150.926C2030.38 133.993 1974.1 130.486 1926.16 129.289C1813.18 126.26 1710.86 141.561 1613.35 176.07C1544.97 200.386 1484.01 231.16 1425.05 260.921C1404.78 271.155 1385.64 280.821 1366.16 290.258C1358.24 294.099 1351.03 297.551 1344.1 300.807C1299.42 321.797 1262.24 336.973 1227.11 348.565C1183.02 363.109 1141.57 372.201 1100.37 376.357C1084.39 377.968 1068.46 378.772 1052.83 378.772C1025.11 378.772 998.298 376.254 973.61 371.265C928.931 362.238 892.078 345.58 864.074 321.755C862.755 320.626 861.439 319.47 860.164 318.316C838.132 298.409 822.674 276.004 807.725 254.334C803.936 248.844 800.023 243.169 796.077 237.65C775.972 209.44 754.545 185.346 730.582 163.991C727.527 161.268 724.365 158.536 721.18 155.87C663.175 107.271 585.022 67.0389 495.173 39.5264C389.095 7.1732 278.354 -5.84116 183.342 2.88058C118.573 8.9497 56.0284 31.7116 24.0085 60.8707C1.74954 81.1385 -4.9263 103.834 4.69543 126.506L4.34003 126.561C-0.683347 114.722 -1.35021 102.91 2.36145 91.4518C5.7983 80.8457 12.9761 70.517 23.7044 60.7496C39.9653 45.9412 64.2688 32.579 93.9913 22.105C121.6 12.375 153.312 5.47157 183.287 2.66265C233.21 -1.92056 287.148 -0.582139 343.599 6.64049C394.54 13.1587 445.591 24.1566 495.341 39.3283C585.242 66.8584 663.439 107.112 721.481 155.74C724.665 158.408 727.827 161.14 730.886 163.865C754.864 185.232 776.302 209.338 796.414 237.56C800.36 243.079 804.277 248.756 808.062 254.246C823.004 275.905 838.455 298.302 860.468 318.191C861.743 319.342 863.055 320.498 864.374 321.625C916.667 366.119 1002.66 385.988 1100.31 376.137C1193.26 366.759 1275.59 332.707 1343.87 300.631C1350.8 297.375 1358.01 293.925 1365.93 290.084C1385.4 280.647 1404.55 270.983 1424.82 260.749C1483.78 230.982 1544.75 200.203 1613.16 175.878C1638.85 166.786 1665.22 158.928 1691.53 152.517C1717.02 146.309 1743.29 141.257 1769.61 137.504C1819.81 130.348 1871.03 127.587 1926.18 129.066C1974.16 130.264 2030.49 133.775 2084.48 150.728C2133.97 166.34 2177.35 189.982 2219.3 212.843C2228.95 218.1 2238.92 223.535 2248.61 228.666C2354.14 284.53 2462.8 347.636 2571.59 416.23L2571.33 416.384Z" fill="#FFE492"/>
  </svg>
  <svg x="-316.22" y="272.91" width="2570.915" height="424.214" viewBox="0 0 2570.91 424.214" opacity="0.3">
    <path d="M2570.64 424.214C2461.33 353.895 2357.46 291.805 2253.1 234.399C2243.15 228.922 2233.34 223.328 2222.96 217.406C2182.39 194.257 2140.44 170.322 2091.75 155.157C2037.15 138.231 1978.41 136.822 1933.33 137.486C1825.49 138.869 1724.61 157.09 1624.92 193.189C1565.11 214.954 1509.89 241.091 1456.49 266.369C1428.42 279.654 1401.92 292.2 1374.88 304.107C1366.86 307.644 1359.4 310.867 1352.1 313.96C1306.8 333.103 1268.41 346.852 1231.25 357.234C1186.14 369.834 1143.97 377.066 1102.33 379.342C1080.93 380.511 1059.68 380.291 1039.16 378.688C1017.44 376.991 996.535 373.735 977.025 369.013C933.778 358.546 897.801 341.149 870.09 317.302C868.782 316.17 867.478 315.012 866.21 313.859C844.548 294.156 828.701 272.178 813.375 250.924C809.286 245.254 805.057 239.389 800.803 233.688C779.856 205.539 757.945 181.646 733.818 160.642C730.714 157.944 727.508 155.236 724.288 152.594C665.509 104.442 586.759 64.7693 496.55 37.8666C413.289 13.1389 327.426 0.23678 248.69 0.23678C226.431 0.23678 204.759 1.26702 183.855 3.35169C119.867 9.85888 57.714 32.7023 25.5072 61.5488C2.77561 81.9112 -4.71001 104.761 3.86014 127.627L3.50107 127.675C-0.972702 115.744 -1.15957 103.85 2.94413 92.3258C6.74739 81.6427 14.2366 71.2457 25.1994 61.4255C41.6289 46.7095 65.8188 33.4023 95.1603 22.9393C122.857 13.0618 153.506 6.21344 183.789 3.13595C233.653 -1.8391 287.65 -0.890306 344.274 5.95149C395.335 12.1197 446.624 22.7896 496.711 37.6663C586.971 64.5844 665.77 104.279 724.584 152.46C727.809 155.102 731.018 157.812 734.122 160.513C758.26 181.527 780.182 205.431 801.141 233.593C805.394 239.294 809.626 245.159 813.715 250.832C829.035 272.077 844.874 294.046 866.518 313.733C867.785 314.884 869.09 316.042 870.394 317.172C922.214 361.764 1006.74 384.341 1102.3 379.12C1198.99 373.834 1286.48 341.422 1351.89 313.775C1359.2 310.682 1366.65 307.459 1374.67 303.924C1401.7 292.021 1428.21 279.474 1456.27 266.191C1509.68 240.91 1564.91 214.767 1624.74 192.996C1676.06 174.41 1726.42 160.865 1778.71 151.584C1829.13 142.633 1879.71 137.949 1933.33 137.262C1963.91 136.811 1988.87 137.594 2011.87 139.725C2041.56 142.477 2067.74 147.459 2091.93 154.956C2140.66 170.135 2182.63 194.083 2223.22 217.244C2233.6 223.165 2243.41 228.757 2253.36 234.234C2357.72 291.643 2461.59 353.736 2570.91 424.06L2570.64 424.214Z" fill="#FFE492"/>
  </svg>
  <svg x="-319.49" y="262.96" width="2570.293" height="432.096" viewBox="0 0 2570.29 432.096" opacity="0.3">
    <path d="M2570.03 432.096C2461.71 361.006 2359.61 298.177 2257.9 240.013C2247.84 234.259 2237.92 228.33 2227.41 222.054C2188.05 198.54 2147.36 174.221 2099.26 159.437C2044.21 142.59 1985.53 143.264 1940.56 145.731C1838.79 151.122 1739.35 172.262 1636.56 210.354C1585.92 229.213 1537.7 250.795 1491.07 271.668C1454.21 288.167 1419.39 303.753 1383.67 317.998C1375.6 321.221 1367.69 324.303 1360.16 327.156C1314.78 344.335 1273.99 357.021 1235.45 365.941C1189.31 376.622 1146.43 381.998 1104.35 382.372C1082.94 382.561 1061.78 381.399 1041.45 378.914C1020.14 376.307 999.641 372.233 980.507 366.8C938.745 354.941 903.64 336.804 876.17 312.891C874.881 311.762 873.584 310.601 872.319 309.441C851.064 289.979 834.873 268.465 819.213 247.66C814.783 241.774 810.2 235.685 805.594 229.766C783.789 201.67 761.391 177.979 737.121 157.335C733.973 154.66 730.723 151.977 727.459 149.359C667.907 101.654 588.556 62.5402 497.988 36.2473C390.471 5.1642 279.111 -6.33565 184.429 3.86541C121.268 10.7887 59.5293 33.6915 27.143 62.21C3.89846 82.6803 -4.41884 105.702 3.08508 128.79L2.72597 128.832C-1.18721 116.797 -0.886732 104.81 3.62368 93.2072C7.81166 82.436 15.6197 71.9641 26.8389 62.0845C43.4296 47.4741 67.4986 34.233 96.4443 23.792C123.822 13.9168 154.222 6.9517 184.363 3.64748C234.171 -1.71721 288.223 -1.16247 345.015 5.30069C396.202 11.1255 447.722 21.4696 498.146 36.0469C588.768 62.3531 668.164 101.491 727.748 149.225C731.016 151.842 734.27 154.528 737.417 157.205C761.703 177.86 784.108 201.562 805.924 229.669C810.533 235.588 815.113 241.677 819.547 247.566C835.199 268.362 851.383 289.867 872.624 309.316C873.888 310.474 875.185 311.634 876.471 312.761C928.837 358.346 1009.76 382.993 1104.34 382.147C1181.09 381.465 1262.31 363.929 1359.96 326.964C1367.49 324.111 1375.4 321.031 1383.47 317.809C1419.17 303.566 1453.99 287.985 1490.85 271.486C1537.49 250.61 1585.71 229.024 1636.37 210.16C1688.19 190.954 1737.75 176.416 1787.86 165.711C1838.63 154.867 1888.57 148.256 1940.52 145.505C1985.54 143.033 2044.3 142.361 2099.43 159.234C2147.58 174.036 2188.29 198.366 2227.67 221.891C2238.17 228.168 2248.09 234.094 2258.15 239.846C2359.87 298.012 2461.97 360.845 2570.29 431.94L2570.03 432.096Z" fill="#FFE492"/>
  </svg>
  <svg x="-322.75" y="253.01" width="2569.753" height="440.005" viewBox="0 0 2569.75 440.005" opacity="0.3">
    <path d="M2569.49 440.005C2462.18 368.142 2361.86 304.569 2262.77 245.657C2252.72 239.676 2242.78 233.461 2232.27 226.881C2194.03 202.946 2154.48 178.196 2106.86 163.747C2051.29 146.961 1992.7 149.724 1947.87 154.006C1852.11 162.976 1756.92 186.346 1648.28 227.551C1607.54 243.074 1567.72 260.104 1529.22 276.572C1482.45 296.574 1438.28 315.468 1392.54 331.923C1384.3 334.891 1376.14 337.739 1368.3 340.385C1322.11 355.957 1280.05 367.175 1239.74 374.678C1217.16 378.88 1194.87 381.925 1173.48 383.727C1150.67 385.649 1128.12 386.224 1106.45 385.436C1062.49 383.835 1021.31 376.831 984.07 364.618C943.85 351.427 909.621 332.553 882.335 308.514C881.052 307.376 879.766 306.214 878.51 305.06C857.709 285.884 841.228 264.881 825.293 244.571C820.468 238.423 815.481 232.066 810.465 225.88C787.781 197.83 764.896 174.34 740.501 154.063C737.309 151.41 734.012 148.751 730.707 146.16C670.382 98.8993 590.433 60.3449 499.507 34.6662C391.272 4.2193 279.607 -6.5233 185.082 4.41521C83.8711 16.3091 -14.7534 67.6996 2.39422 129.987L2.03149 130.022C-2.25908 114.441 0.254436 99.0908 9.49877 84.3946C17.9407 70.973 31.7943 58.3417 50.6751 46.855C68.2294 36.1741 89.2902 26.9526 113.268 19.446C136.072 12.307 160.882 7.03261 185.009 4.19728C234.759 -1.55925 288.869 -1.39415 345.834 4.69038C397.145 10.1695 448.899 20.1879 499.661 34.468C590.638 60.1644 670.635 98.7408 730.996 146.028C734.305 148.621 737.602 151.28 740.797 153.935C765.203 174.221 788.1 197.724 810.795 225.785C815.811 231.971 820.798 238.328 825.623 244.479C841.554 264.782 858.028 285.776 878.817 304.941C880.071 306.095 881.353 307.257 882.635 308.393C935.078 354.59 1014.57 381.872 1106.47 385.218C1184.28 388.047 1269.86 373.322 1368.12 340.196C1375.96 337.55 1384.11 334.703 1392.35 331.736C1438.08 315.285 1482.25 296.393 1529.01 276.394C1567.51 259.924 1607.34 242.892 1648.09 227.366C1756.77 186.143 1852 162.765 1947.81 153.788C1977.93 150.911 2002.87 149.99 2026.3 150.895C2056.26 152.051 2082.66 156.189 2107.02 163.549C2154.69 178.014 2194.26 202.779 2232.53 226.727C2243.04 233.305 2252.97 239.519 2263.03 245.498C2362.12 304.415 2462.44 367.99 2569.75 439.857L2569.49 440.005Z" fill="#FFE492"/>
  </svg>
  <svg x="-326.21" y="242.98" width="2569.299" height="447.954" viewBox="0 0 2569.3 447.954" opacity="0.3">
    <path d="M2569.02 447.954C2462.74 375.308 2364.18 310.995 2267.72 251.339C2257.74 245.166 2247.88 238.701 2237.44 231.852C2200.23 207.459 2161.75 182.234 2114.52 168.095C2057.74 151.169 1996.43 156.692 1955.25 162.318C1843.48 177.402 1743.32 212.47 1660.08 244.788C1630.17 256.45 1600.33 268.804 1571.47 280.751C1513.57 304.717 1458.89 327.354 1401.49 345.889C1393.05 348.616 1384.65 351.229 1376.52 353.657C1329.43 367.7 1286.11 377.447 1244.11 383.453C1196.49 390.261 1150.92 391.974 1108.64 388.54C1065.2 385.011 1024.52 376.241 987.717 362.472C949.116 348.031 915.763 328.419 888.576 304.18C887.308 303.042 886.029 301.877 884.78 300.719C864.496 281.896 847.81 261.469 831.67 241.714C826.382 235.24 820.912 228.548 815.416 222.034C791.508 193.633 768.802 171.009 743.964 150.832C740.729 148.203 737.391 145.571 734.038 143.002C672.933 96.1899 592.383 58.1946 501.098 33.1234C392.144 3.31494 280.172 -6.67258 185.809 5.00338C84.2346 17.7382 -12.3747 68.4309 1.77575 131.224L1.41302 131.253C-2.09711 115.674 0.940362 100.339 10.4375 85.6762C19.1432 72.2414 33.0775 59.5968 51.8593 48.097C69.3733 37.372 90.3242 28.0823 114.133 20.4811C136.802 13.243 161.564 7.8167 185.735 4.78544C235.43 -1.36292 289.596 -1.58746 346.729 4.11624C398.164 9.24979 450.153 18.9423 501.252 32.9231C592.592 58.0075 673.186 96.0248 734.32 142.865C737.673 145.436 741.014 148.071 744.253 150.7C769.106 170.886 791.82 193.523 815.738 221.935C821.234 228.449 826.705 235.143 831.992 241.618C848.128 261.366 864.811 281.786 885.08 300.601C886.329 301.758 887.605 302.921 888.872 304.059C941.722 351.177 1019.78 381.102 1108.68 388.322C1188.41 394.798 1275.97 383.393 1376.36 353.459C1384.48 351.033 1392.88 348.423 1401.31 345.695C1458.7 327.164 1513.37 304.532 1571.26 280.568C1600.12 268.622 1629.96 256.265 1659.88 244.6C1715.85 222.871 1762.42 206.816 1806.41 194.077C1858.19 179.082 1906.85 168.623 1955.17 162.103C1984.62 158.079 2010.29 156.256 2033.64 156.533C2063.72 156.89 2090.23 160.606 2114.69 167.897C2161.98 182.053 2200.48 207.294 2237.71 231.703C2248.15 238.549 2258.01 245.014 2267.98 251.182C2364.45 310.841 2463.01 375.158 2569.3 447.807L2569.02 447.954Z" fill="#FFE492"/>
  </svg>
  <svg x="-329.66" y="232.87" width="2568.933" height="455.939" viewBox="0 0 2568.93 455.939" opacity="0.3">
    <path d="M2568.66 455.939C2463.4 382.506 2366.62 317.452 2272.77 257.056C2262.93 250.723 2253.19 244.033 2242.88 236.949C2206.66 212.065 2169.2 186.333 2122.29 172.48C2064.89 155.594 2003.74 163.358 1962.74 170.668C1861.47 188.568 1771.14 222.649 1671.98 262.06C1654.1 269.194 1636.01 276.558 1618.51 283.681C1551.23 311.075 1481.65 339.4 1410.53 359.89C1401.89 362.382 1393.24 364.761 1384.83 366.963C1337.42 379.361 1291.58 387.871 1248.57 392.258C1199.86 397.229 1153.54 397.033 1110.91 391.679C1068.08 386.302 1027.89 375.764 991.451 360.359C954.572 344.769 922.087 324.422 894.9 299.883C893.643 298.743 892.375 297.576 891.133 296.418C871.461 278.035 854.669 258.273 838.43 239.163C832.579 232.278 826.529 225.158 820.451 218.231C795.609 189.858 772.43 167.428 747.507 147.642C744.235 145.045 740.85 142.434 737.45 139.885C675.582 93.5133 594.439 56.0772 502.787 31.618C393.119 2.44793 280.843 -6.78233 186.633 5.62888C88.2836 18.7269 -10.11 67.6409 1.25209 132.497L0.889354 132.519C-1.84034 116.94 1.72109 101.623 11.4711 86.9929C20.4369 73.5427 34.4555 60.8871 53.1346 49.3741C87.5984 28.1355 136.227 12.1119 186.553 5.41095C236.189 -1.12706 290.413 -1.74344 347.718 3.57942C399.279 8.36956 451.498 17.7341 502.934 31.4155C594.637 55.8879 675.828 93.3482 737.735 139.742C741.139 142.293 744.525 144.904 747.8 147.504C772.734 167.3 795.924 189.739 820.773 218.123C826.852 225.053 832.905 232.172 838.756 239.058C854.991 258.163 871.78 277.92 891.441 296.295C892.68 297.453 893.947 298.617 895.204 299.758C949.596 348.852 1024.21 380.563 1110.98 391.461C1191.32 401.552 1283.41 393.242 1384.68 366.76C1393.09 364.559 1401.73 362.181 1410.36 359.692C1481.46 339.208 1551.02 310.888 1618.3 283.499C1635.79 276.375 1653.88 269.011 1671.77 261.877C1715.18 244.625 1765.68 224.837 1815.81 208.316C1868.25 191.035 1916.27 178.653 1962.62 170.459C1991.8 165.257 2017.47 162.559 2041.08 162.211C2070.86 161.771 2098.23 165.161 2122.44 172.284C2143.46 178.49 2164.6 187.751 2187.1 200.598C2206.96 211.942 2225.36 224.582 2243.15 236.804C2253.46 243.885 2263.2 250.575 2273.03 256.906C2366.88 317.305 2463.67 382.361 2568.93 455.796L2568.66 455.939Z" fill="#FFE492"/>
  </svg>
  <svg x="-333.31" y="222.84" width="2568.68" height="463.961" viewBox="0 0 2568.68 463.961" opacity="0.3">
    <path d="M2568.4 463.961C2464.17 389.736 2369.16 323.94 2277.92 262.813C2268.26 256.341 2258.69 249.448 2248.56 242.153C2213.28 216.752 2176.8 190.485 2130.16 176.905C2086.58 164.254 2034.29 164.959 1970.32 179.058C1880.87 198.661 1800.91 231.45 1716.26 266.168C1705.72 270.491 1694.82 274.96 1683.98 279.374C1679.73 281.106 1675.48 282.843 1671.23 284.578C1590.57 317.53 1507.17 351.604 1419.68 373.93C1410.83 376.189 1401.94 378.335 1393.25 380.308C1344.8 391.299 1297.66 398.295 1253.15 401.099C1203.31 404.239 1156.25 402.138 1113.3 394.856C1071.14 387.709 1031.44 375.403 995.312 358.281C960.292 341.685 928.678 320.605 901.348 295.622C900.103 294.479 898.846 293.31 897.611 292.15C878.687 274.344 861.949 255.379 845.758 237.039C839.203 229.612 832.421 221.932 825.609 214.456C799.807 186.102 776.16 163.867 751.178 144.482C747.859 141.906 744.433 139.322 740.989 136.797C678.338 90.8743 596.593 53.9951 504.582 30.1479C394.204 1.61841 281.616 -6.8568 187.564 6.28966C91.0205 19.8962 -7.23397 69.2108 0.837873 133.807L0.471471 133.825C-1.47413 118.244 2.6076 102.944 12.6104 88.3516C21.8401 74.8859 35.9392 62.2149 54.5195 50.6931C88.8367 29.4104 137.297 13.1491 187.48 6.07613C237.061 -0.853717 291.34 -1.86193 348.814 3.0823C400.499 7.52462 452.956 16.5634 504.729 29.9454C596.791 53.808 678.587 90.707 741.264 136.654C744.708 139.179 748.141 141.767 751.461 144.343C776.453 163.739 800.115 185.981 825.925 214.346C832.74 221.822 839.518 229.504 846.077 236.932C862.261 255.267 878.998 274.227 897.915 292.027C899.15 293.187 900.403 294.354 901.649 295.496C957.221 346.295 1030.44 380.576 1113.39 394.638C1195.28 408.52 1289.39 403.627 1393.12 380.096C1401.8 378.124 1410.69 375.98 1419.53 373.723C1506.99 351.406 1590.38 317.338 1671.02 284.391C1675.27 282.654 1679.52 280.919 1683.77 279.187C1694.61 274.773 1705.51 270.304 1716.05 265.983C1800.72 231.259 1880.7 198.461 1970.19 178.849C1999.09 172.478 2024.75 168.906 2048.63 167.922C2078.51 166.691 2106 169.647 2130.32 176.705C2151.21 182.787 2172.09 192.09 2194.17 205.146C2213.64 216.666 2231.54 229.55 2248.84 242.01C2258.97 249.303 2268.54 256.193 2278.2 262.663C2369.43 323.792 2464.45 389.591 2568.68 463.818L2568.4 463.961Z" fill="#FFE492"/>
  </svg>
  <svg x="-337.15" y="212.64" width="2568.542" height="472.026" viewBox="0 0 2568.54 472.026" opacity="0.3">
    <path d="M2568.26 472.026C2473.13 402.86 2377.22 334.42 2283.2 268.611C2273.62 261.949 2264.13 254.793 2254.09 247.218C2221.43 222.576 2184.4 194.647 2138.15 181.371C2094.05 168.742 2041.68 170.743 1978.02 187.486C1902.33 207.329 1835.35 236.506 1764.43 267.395C1742.22 277.068 1719.25 287.073 1696.09 296.724C1655.66 313.606 1611.92 331.47 1566.07 347.74C1516.97 365.166 1472.11 378.337 1428.93 388.01C1419.86 390.041 1410.73 391.954 1401.79 393.691C1352.31 403.296 1303.89 408.762 1257.87 409.937C1206.93 411.236 1159.13 407.247 1115.79 398.072C1035.76 380.919 965.814 345.03 907.897 291.401C906.662 290.256 905.416 289.085 904.189 287.925C886.224 270.904 869.78 252.948 853.878 235.582C846.393 227.408 838.654 218.955 830.868 210.728C804.084 182.381 779.96 160.342 754.95 141.368C751.582 138.815 748.112 136.254 744.628 133.756C681.215 88.276 598.869 51.9581 506.499 28.7207C395.406 0.829597 282.514 -6.88613 188.616 6.99338C91.4866 21.432 -4.30563 70.0929 0.541867 135.16L0.175465 135.169C-0.98603 119.584 3.62331 104.302 13.8716 89.7465C23.3687 76.2633 37.5485 63.5791 56.0225 52.0484C73.4266 41.1847 94.055 31.6859 117.333 23.8139C139.932 16.173 163.884 10.4407 188.525 6.77765C238.051 -0.541841 292.389 -1.9419 350.031 2.6215C401.84 6.72261 454.529 15.4334 506.639 28.516C599.064 51.7666 681.457 88.1065 744.906 133.608C748.391 136.109 751.868 138.672 755.235 141.225C780.257 160.21 804.392 182.258 831.187 210.614C838.973 218.842 846.711 227.296 854.197 235.471C870.099 252.836 886.539 270.79 904.497 287.804C905.72 288.966 906.97 290.135 908.201 291.28C966.074 344.868 1035.96 380.728 1115.91 397.863C1198.27 415.298 1297.08 413.783 1401.67 393.48C1410.61 391.743 1419.74 389.832 1428.8 387.803C1525.35 366.179 1613.68 330.863 1695.88 296.541C1719.04 286.891 1742 276.888 1764.21 267.215C1835.14 236.319 1902.14 207.136 1977.87 187.284C2041.63 170.514 2094.11 168.513 2138.3 181.171C2159.02 187.117 2179.59 196.437 2201.19 209.661C2220.23 221.321 2237.59 234.417 2254.38 247.079C2264.42 254.654 2273.9 261.808 2283.47 268.465C2377.5 334.277 2473.41 402.717 2568.54 471.885L2568.26 472.026Z" fill="#FFE492"/>
  </svg>
  <svg x="-340.99" y="202.44" width="2568.543" height="480.13" viewBox="0 0 2568.54 480.13" opacity="0.3">
    <path d="M2568.26 480.13C2474.58 410.58 2380.49 341.379 2288.6 274.446C2279.33 267.713 2270.13 260.431 2260.39 252.721C2228.53 227.505 2192.41 198.923 2146.27 185.871C2101.65 173.264 2049.18 176.561 1985.86 195.949C1919.51 216.232 1858.56 244.871 1799.61 272.571C1770.05 286.459 1739.49 300.821 1708.34 314.11C1659.19 335.107 1617.83 351.124 1578.18 364.519C1529.29 381.036 1483.55 393.337 1438.33 402.125C1429.05 403.93 1419.67 405.607 1410.46 407.111C1362.45 414.941 1315.3 418.903 1270.19 418.906C1267.69 418.906 1265.2 418.892 1262.7 418.868C1210.56 418.357 1162.02 412.453 1118.43 401.323C1097.39 395.921 1076.79 389.064 1057.2 380.941C1038.78 373.307 1020.68 364.314 1003.41 354.215C972.326 336.045 943.27 314.128 914.588 287.217C913.357 286.059 912.13 284.899 910.91 283.734C894.268 267.856 878.523 251.258 863.299 235.205C854.509 225.94 845.423 216.357 836.27 207.03C808.09 178.294 784.219 157.09 758.86 138.284C755.449 135.755 751.935 133.219 748.407 130.745C684.224 85.716 601.282 49.9573 508.552 27.3297C396.748 0.0791664 283.549 -6.87929 189.804 7.73326C94.4959 22.632 -1.17169 71.6626 0.385519 136.547L0.0191167 136.55C-0.70636 106.327 19.2296 77.5887 57.6688 53.4421C75.0436 42.5278 95.5622 32.9607 118.66 25.0006C141.135 17.2563 165.039 11.3743 189.713 7.51752C239.181 -0.1938 293.577 -1.9835 351.388 2.19906C403.322 5.95677 456.245 14.3417 508.688 27.1227C601.476 49.7658 684.466 85.5465 748.689 130.602C752.217 133.078 755.738 135.616 759.15 138.146C784.519 156.963 808.401 178.173 836.589 206.92C845.742 216.249 854.832 225.832 863.618 235.097C878.842 251.147 894.583 267.743 911.221 283.617C912.441 284.782 913.665 285.942 914.896 287.098C975.844 344.284 1042.47 381.582 1118.57 401.121C1223.98 428.039 1335.43 419.121 1410.36 406.899C1419.57 405.396 1428.94 403.721 1438.22 401.916C1542.2 381.703 1637.09 344.278 1708.13 313.932C1739.27 300.647 1769.83 286.285 1799.39 272.399C1858.35 244.695 1919.31 216.047 1985.69 195.755C2014.03 187.079 2039.67 181.752 2064.09 179.471C2094.2 176.658 2121.9 178.745 2146.43 185.675C2167.09 191.519 2187.46 200.915 2208.71 214.396C2227.43 226.274 2244.33 239.652 2260.68 252.592C2270.42 260.298 2279.62 267.578 2288.89 274.308C2380.78 341.24 2474.86 410.441 2568.54 479.991L2568.26 480.13Z" fill="#FFE492"/>
  </svg>
  <svg x="-345.02" y="192.25" width="2568.685" height="488.266" viewBox="0 0 2568.69 488.266" opacity="0.3">
    <path d="M2568.4 488.266L2294.15 280.317C2285.2 273.526 2276.3 266.136 2266.89 258.315C2235.81 232.502 2200.59 203.246 2154.54 190.41C2110.01 177.999 2055.94 182.723 1993.84 204.452C1934.14 225.341 1879.69 253.12 1827.03 279.985C1792.7 297.497 1757.21 315.603 1720.74 331.538C1611.13 379.435 1515.34 407.725 1419.28 420.57C1379.43 425.897 1340.12 428.578 1302 428.578C1290.44 428.578 1279 428.332 1267.68 427.839C1214.3 425.514 1165.02 417.699 1121.21 404.614C1080.61 392.485 1043.46 375.363 1007.66 352.266C979.078 333.823 951.675 311.836 921.428 283.071C905.464 267.891 890.006 252.118 875.057 236.865C841.223 202.348 806.239 166.655 762.926 135.242C696.49 87.061 609.287 49.277 510.743 25.9736C398.232 -0.634153 284.724 -6.83755 191.134 8.50805C100.522 23.365 2.17643 70.2141 0.366402 137.972L0 137.967C0.809749 107.681 21.3686 78.9468 59.4524 54.8707C93.8869 33.1015 140.618 16.5606 191.038 8.29452C240.451 0.193556 294.906 -1.98798 352.882 1.81375C404.94 5.22584 458.098 13.2872 510.878 25.7688C559.639 37.2995 605.949 52.4778 648.525 70.8833C691.456 89.4429 730.042 111.047 763.205 135.097C806.536 166.521 841.531 202.222 875.372 236.748C890.321 251.999 905.779 267.77 921.74 282.948C965.869 324.919 1028.44 376.653 1121.38 404.412C1227.96 436.246 1342.16 430.65 1419.2 420.35C1515.21 407.514 1610.96 379.235 1720.53 331.356C1756.98 315.427 1792.47 297.321 1826.79 279.813C1879.46 252.944 1933.93 225.158 1993.66 204.259C2055.86 182.492 2110.05 177.763 2154.69 190.207C2175.31 195.955 2195.5 205.432 2216.4 219.184C2234.8 231.289 2251.27 244.962 2267.18 258.183C2276.6 266.004 2285.49 273.39 2294.44 280.179L2568.69 488.127L2568.4 488.266Z" fill="#FFE492"/>
  </svg>
  <svg x="-346.37" y="222.75" width="2567.901" height="441.789" viewBox="0 0 2567.9 441.789" opacity="0.3">
    <path d="M2567.53 441.789C2497.69 383.889 2437.78 336.905 2378.97 293.933C2350.42 273.057 2321.27 252.51 2292.32 232.861C2283.56 226.917 2274.88 220.595 2265.7 213.901C2242.61 197.076 2218.74 179.678 2191.27 166.767C2176.52 159.822 2162.33 154.849 2147.87 151.565C2103.49 141.384 2051.41 148.115 1993.1 171.575C1962.92 183.698 1935.44 197.494 1912.54 209.39C1888.29 221.984 1864.38 235.872 1841.25 249.303C1808 268.608 1773.63 288.57 1736.67 305.714C1714.19 316.177 1691.39 325.527 1668.92 333.504C1623.96 349.464 1575.71 362.615 1525.5 372.591C1494.47 378.687 1463.3 383.294 1432.85 386.284C1406.6 388.851 1380.31 390.332 1354.7 390.686C1316.36 391.219 1279.01 389.187 1243.68 384.642C1206.12 379.807 1170.57 372.092 1138.02 361.706C1109 352.445 1081.59 340.784 1054.23 326.055C1003.23 298.63 962.557 266.92 932.82 242.357C918.211 230.235 903.947 217.872 890.152 205.916C850.431 171.485 812.911 138.964 765.96 109.997C727.668 86.5261 683.978 66.2715 636.093 49.7922C599.295 37.1278 559.273 26.7705 517.14 19.0063C507.104 17.1594 496.878 15.4379 486.754 13.8948C443.167 7.26211 394.099 2.94306 340.915 1.0565C287.296 -0.88949 240.906 0.794543 199.103 6.20986C175.47 9.24772 152.574 14.0136 131.04 20.3733C55.019 42.8271 6.20319 80.5208 0.458003 121.206L0 121.182C1.53156 110.336 6.02735 99.6527 13.3591 89.4253C20.3244 79.7107 29.8911 70.3418 41.7919 61.5782C64.278 45.0241 95.0704 30.6889 130.839 20.1246C152.405 13.7539 175.338 8.98136 199.008 5.93909C240.855 0.519372 287.281 -1.16686 340.945 0.781334C394.157 2.66789 443.251 6.99134 486.868 13.6284C497.003 15.1738 507.233 16.8952 517.276 18.7443C559.441 26.5129 599.496 36.8791 636.324 49.5544C684.242 66.0447 727.968 86.317 766.279 109.803C813.259 138.788 850.786 171.318 890.522 205.758C904.314 217.713 918.578 230.074 933.183 242.194C962.905 266.746 1003.56 298.441 1054.53 325.848C1081.87 340.562 1109.25 352.211 1138.23 361.461C1201.92 381.786 1274.75 391.527 1354.68 390.411C1380.27 390.057 1406.55 388.575 1432.77 386.011C1463.2 383.021 1494.35 378.418 1525.35 372.327C1575.53 362.357 1623.76 349.215 1668.69 333.264C1691.14 325.293 1713.92 315.948 1736.39 305.494C1773.32 288.359 1807.69 268.402 1840.93 249.102C1864.06 235.67 1887.98 221.777 1912.24 209.179C1935.15 197.276 1962.64 183.476 1992.84 171.344C2018.81 160.899 2043.95 153.683 2067.57 149.894C2096.58 145.24 2123.66 145.716 2148.03 151.307C2162.53 154.603 2176.77 159.589 2191.55 166.55C2219.06 179.48 2242.95 196.889 2266.05 213.724C2275.23 220.417 2283.91 226.739 2292.66 232.678C2321.62 252.329 2350.78 272.879 2379.33 293.759C2438.14 336.736 2498.06 383.724 2567.9 441.628L2567.53 441.789Z" fill="#FFE492"/>
  </svg>
  <svg x="-347.71" y="253.18" width="2567.121" height="395.423" viewBox="0 0 2567.12 395.423" opacity="0.3">
    <path d="M2566.66 395.423C2501.91 336.543 2441.14 287.273 2380.88 244.798C2351.49 224.05 2321.08 204.106 2290.48 185.52C2282.36 180.589 2274.35 175.464 2265.86 170.04C2240.45 153.796 2214.17 137 2184.74 125.379C2169.87 119.486 2155.64 115.382 2141.2 112.833C2085.91 103.068 2029.74 121.568 1992.36 138.807C1965.87 150.985 1941.68 164.754 1917.18 178.968C1895.74 191.41 1875.56 204.795 1854.2 218.963C1822.49 239.994 1789.71 261.741 1752.6 280.002C1730.59 290.896 1707.61 300.316 1684.31 307.998C1640.91 322.311 1593.38 333.426 1539.02 341.981C1508.59 346.766 1477.43 350.176 1446.41 352.111C1420.23 353.725 1394.09 354.302 1368.73 353.819C1331 353.111 1294.12 349.923 1259.1 344.347C1222.33 338.489 1187.25 329.93 1154.82 318.908C1126.42 309.253 1098.99 297.273 1070.97 282.287C1020.08 255.107 976.491 224.974 944.204 201.759C932.252 193.165 920.49 184.518 909.114 176.153C863.808 142.842 821.016 111.376 768.994 84.8673C730.115 65.0552 686.466 48.3029 639.266 35.0772C603.553 25.0699 565.699 17.5721 523.549 12.1546C513.821 10.9064 503.924 9.7815 494.137 8.81071C451.151 4.56871 405.274 2.96393 349.768 1.30411C309.756 0.0471424 257.379 -0.78057 207.061 4.02277C183.23 6.25494 160.195 10.1315 138.588 15.5402C62.5155 34.5885 10.9115 67.8641 0.542268 104.556L0 104.501C2.74802 94.7712 8.3173 85.2284 16.543 76.1346C24.384 67.4701 34.6873 59.1622 47.1633 51.4354C70.8732 36.7568 102.413 24.2378 138.375 15.2342C160.023 9.81452 183.102 5.93135 206.973 3.69478C257.339 -1.11517 309.756 -0.285264 349.793 0.971707C405.318 2.63152 451.21 4.2363 494.225 8.48051C504.019 9.4535 513.923 10.5784 523.662 11.8266C565.853 17.2507 603.743 24.7551 639.497 34.7734C686.744 48.0123 730.43 64.7778 769.35 84.6098C821.408 111.138 864.218 142.613 909.539 175.937C920.912 184.3 932.673 192.947 944.625 201.539C976.905 224.745 1020.48 254.867 1071.33 282.033C1099.32 297.005 1126.72 308.971 1155.09 318.615C1218.85 340.288 1290.74 352.019 1368.75 353.485C1394.09 353.965 1420.2 353.39 1446.35 351.777C1477.35 349.844 1508.48 346.438 1538.88 341.655C1593.2 333.109 1640.69 322.003 1684.05 307.703C1707.32 300.029 1730.27 290.623 1752.26 279.74C1789.33 261.495 1822.1 239.756 1853.79 218.736C1875.16 204.561 1895.34 191.175 1916.8 178.726C1941.32 164.503 1965.52 150.73 1992.03 138.538C2016.26 127.362 2040.17 119.323 2063.08 114.638C2090.86 108.959 2117.2 108.243 2141.36 112.51C2155.85 115.07 2170.14 119.186 2185.04 125.097C2214.53 136.74 2240.83 153.552 2266.26 169.809C2274.75 175.231 2282.76 180.353 2290.88 185.282C2321.48 203.874 2351.91 223.825 2381.31 244.58C2441.58 287.066 2502.36 336.345 2567.12 395.238L2566.66 395.423Z" fill="#FFE492"/>
  </svg>
  <svg x="-349.06" y="283.27" width="2566.325" height="349.291" viewBox="0 0 2566.33 349.291" opacity="0.3">
    <path d="M2565.79 349.291C2505.19 288.633 2445.34 238.457 2382.79 195.898C2352.56 175.278 2320.88 155.94 2288.64 138.415C2281.76 134.668 2274.66 130.692 2267.8 126.849C2239.48 110.968 2210.19 94.5484 2178.21 84.2262C2163.19 79.348 2148.91 76.112 2134.53 74.3355C2079.36 67.5136 2026.37 87.9377 1991.62 106.271C1968.07 118.647 1946.55 132.674 1925.73 146.24L1921.83 148.781C1902.93 161.089 1885.2 174.587 1866.42 188.881C1836.53 211.64 1805.62 235.173 1768.54 254.523C1746.96 265.864 1723.8 275.354 1699.7 282.729C1657.67 295.587 1610.91 304.762 1552.53 311.604C1522.34 315.141 1491.19 317.351 1459.96 318.17C1433.84 318.828 1407.87 318.498 1382.76 317.184C1306.73 313.224 1235.69 299.483 1171.62 276.345C1143.92 266.342 1116.47 254.047 1087.71 238.752C1039.04 212.924 995.753 186.375 955.592 161.397C950.206 158.048 944.878 154.722 939.591 151.422C884.737 117.194 832.928 84.8624 772.039 59.9784C732.288 43.7324 688.682 30.4847 642.439 20.6006C608.488 13.345 571.694 8.41835 529.961 5.53898C520.555 4.89399 510.988 4.36347 501.524 3.96282C477.715 2.97222 452.463 2.81152 425.726 2.64201C404.252 2.50553 382.048 2.36464 358.616 1.79009C313.362 0.585953 262.073 -0.776685 215.012 2.07626C190.731 3.54897 167.556 6.534 146.129 10.9499C70.0854 26.6235 15.6893 55.4854 0.619198 88.1556L0 88.0522C3.9718 79.4383 10.611 71.0357 19.7308 63.0779C28.4511 55.4678 39.4872 48.2166 52.5311 41.5267C77.4794 28.7324 109.774 18.0339 145.916 10.5845C167.391 6.15757 190.613 3.16593 214.943 1.69103C262.051 -1.16412 313.366 0.200717 358.638 1.40486C382.055 1.97721 404.259 2.12029 425.726 2.25678C452.474 2.42628 477.734 2.58698 501.564 3.57979C511.036 3.98264 520.614 4.51316 530.026 5.15815C571.811 8.03972 608.649 12.9729 642.648 20.2396C688.946 30.1347 732.599 43.3978 772.394 59.6614C833.338 84.5674 885.173 116.914 940.049 151.158C945.336 154.458 950.667 157.782 956.05 161.133C996.204 186.107 1039.48 212.649 1088.13 238.468C1116.86 253.746 1144.28 266.029 1171.94 276.019C1235.94 299.129 1306.88 312.85 1382.81 316.805C1407.9 318.117 1433.84 318.448 1459.93 317.789C1491.13 316.971 1522.25 314.763 1552.4 311.229C1610.72 304.394 1657.44 295.23 1699.4 282.39C1723.45 275.03 1746.57 265.558 1768.11 254.236C1805.15 234.911 1836.04 211.392 1865.91 188.645C1884.7 174.345 1902.44 160.84 1921.35 148.523L1925.25 145.983C1946.08 132.409 1967.62 118.374 1991.19 105.984C2026.05 87.5921 2079.23 67.1085 2134.66 73.9613C2149.1 75.7466 2163.44 78.9936 2178.51 83.8916C2210.56 94.2358 2239.88 110.673 2268.24 126.571C2275.09 130.415 2282.18 134.391 2289.07 138.135C2321.32 155.669 2353.01 175.019 2383.27 195.65C2445.83 238.226 2505.71 288.419 2566.33 349.097L2565.79 349.291Z" fill="#FFE492"/>
  </svg>
  <svg x="-350.4" y="311.87" width="2565.527" height="304.683" viewBox="0 0 2565.53 304.683" opacity="0.3">
    <path d="M2564.9 304.683C2509.27 243.109 2448.64 190.569 2384.7 148.528C2353.61 128.037 2320.68 109.302 2286.81 92.8401C2281.92 90.4626 2276.91 87.9949 2272.06 85.6086C2240.05 69.8448 2206.94 53.5416 2171.68 44.6041C2156.55 40.7275 2142.22 38.3611 2127.88 37.3661C2072.86 33.5533 2023.01 55.8684 1990.88 75.2601C1970.93 87.2398 1952.92 100.562 1935.51 113.447C1932.5 115.677 1929.49 117.902 1926.47 120.119C1909.9 132.297 1894.42 145.901 1878.02 160.303C1850.14 184.786 1821.32 210.102 1784.46 230.574C1762.81 242.596 1740.12 251.89 1715.07 258.991C1662.68 273.844 1610.33 279.341 1566.03 282.761C1536.06 285.073 1504.93 286.085 1473.49 285.764C1447.46 285.467 1421.65 284.228 1396.78 282.083C1323.03 275.741 1252.92 260.006 1188.4 235.314C1161.56 225.042 1134.1 212.428 1104.44 196.753C1074.49 180.956 1046.58 165.755 1019.58 151.055C1001.23 141.063 983.904 131.626 966.98 122.572C903.006 88.3449 844.407 58.2525 775.087 36.622C734.483 23.9533 690.921 14.2057 645.612 7.65227C613.138 2.95459 578.425 0.667381 536.373 0.449448C527.301 0.409824 518.06 0.473662 508.911 0.640964C495.013 0.91173 480.636 1.47748 465.419 2.07845C436.217 3.22976 403.112 4.53516 367.454 3.80432C353.875 3.52474 340.021 3.13069 326.622 2.74766C292.158 1.76365 256.522 0.746639 222.948 1.6558C198.293 2.32501 174.975 4.42069 153.651 7.88561C77.7359 20.2242 20.5515 44.6746 0.677835 73.2899L0 73.1204C5.20291 65.627 12.912 58.3669 22.9111 51.5406C32.5146 44.9849 44.2834 38.7926 57.8842 33.1373C84.093 22.2406 117.139 13.3626 153.453 7.46075C174.829 3.98702 198.198 1.88474 222.908 1.21553C256.518 0.304168 292.169 1.32338 326.651 2.30739C340.047 2.69042 353.901 3.08447 367.476 3.36405C403.101 4.09489 436.18 2.79169 465.368 1.64039C480.592 1.03942 494.973 0.473664 508.885 0.202898C518.045 0.0355953 527.293 -0.0282427 536.376 0.0113815C578.487 0.227114 613.251 2.52092 645.78 7.22521C691.145 13.7874 734.765 23.546 775.421 36.2324C806.734 46.002 838.464 58.3802 872.426 74.0714C902.83 88.1182 932.406 103.488 967.463 122.244C984.387 131.3 1001.72 140.737 1020.07 150.729C1047.06 165.427 1074.97 180.628 1104.92 196.422C1134.54 212.083 1161.98 224.683 1188.79 234.944C1253.22 259.603 1323.23 275.316 1396.87 281.65C1421.71 283.792 1447.49 285.029 1473.5 285.326C1504.9 285.647 1536 284.637 1565.92 282.326C1610.17 278.911 1662.46 273.421 1714.75 258.595C1739.73 251.513 1762.37 242.243 1783.95 230.253C1820.75 209.815 1849.55 184.52 1877.41 160.056C1893.82 145.646 1909.31 132.035 1925.89 119.844C1928.91 117.627 1931.92 115.402 1934.93 113.174C1952.36 100.281 1970.38 86.9493 1990.35 74.9541C2011.26 62.3382 2032.7 52.6324 2054.09 46.1076C2079.43 38.3787 2104.28 35.2924 2127.95 36.9346C2142.36 37.934 2156.76 40.3115 2171.96 44.2035C2207.31 53.1652 2240.45 69.4882 2272.51 85.2718C2277.36 87.6581 2282.36 90.1258 2287.25 92.5011C2321.15 108.976 2354.11 127.729 2385.22 148.235C2419.17 170.559 2452.42 195.993 2484.04 223.831C2511.99 248.436 2539.41 275.57 2565.53 304.476L2564.9 304.683Z" fill="#FFE492"/>
  </svg>
  <svg x="-351.74" y="333.18" width="2564.728" height="267.399" viewBox="0 0 2564.73 267.399" opacity="0.3">
    <path d="M2563.99 267.399C2512.5 204.059 2452.81 150.593 2386.58 108.483C2354.64 88.1232 2320.45 69.9929 2284.95 54.5922C2283.26 53.8592 2281.57 53.1261 2279.88 52.3909C2242.96 36.3562 2204.79 19.7757 2165.14 12.3109C2149.78 9.41834 2135.41 7.91922 2121.21 7.7255C2066.41 6.98144 2019.68 31.1611 1990.13 51.5742C1972.74 63.5165 1957.3 76.6057 1942.37 89.2635C1938.68 92.3938 1934.86 95.6298 1931.1 98.7821C1916.75 110.788 1903.4 124.439 1889.28 138.893C1863.6 165.184 1837.03 192.368 1800.37 213.95C1779.15 226.436 1756.27 235.801 1730.42 242.581C1679.5 255.936 1627.79 259.443 1579.49 261.244C1549.72 262.353 1518.6 262.164 1487 260.683C1461.05 259.428 1435.41 257.281 1410.77 254.305C1339.53 245.72 1270.35 227.99 1205.17 201.607C1179.06 191.043 1152.36 178.482 1121.16 162.078C1061.85 130.986 1017.81 109.087 978.36 91.073C899.902 55.246 840.021 34.1681 778.139 20.5946C736.71 11.5074 693.193 5.26219 648.789 2.03061C617.981 -0.210364 585.287 -0.0100323 542.785 2.68662C534.075 3.24576 525.164 3.90396 516.297 4.64581C507.922 5.35685 499.414 6.17135 490.404 7.03208C457.138 10.213 419.432 13.8188 376.277 13.1452C353.531 12.7908 330.297 11.82 307.829 10.8822C282.295 9.81679 255.892 8.7139 230.859 8.56421C205.761 8.41452 182.3 9.62087 161.147 12.1524C85.4853 21.2022 25.5053 41.2454 0.703508 65.7663L0 65.5087C6.44135 59.138 15.2204 53.0205 26.0915 47.3256C36.5853 41.8266 49.0796 36.6953 63.2301 32.0702C90.7176 23.0843 124.522 16.0268 160.986 11.6659C182.197 9.12997 205.709 7.91922 230.866 8.06891C255.921 8.2186 282.339 9.32149 307.884 10.3891C330.345 11.3269 353.567 12.2977 376.295 12.6521C419.373 13.3235 457.039 9.72213 490.268 6.54558C499.282 5.68265 507.797 4.87036 516.177 4.15712C525.054 3.41527 533.973 2.75705 542.689 2.19571C585.258 -0.503144 618.007 -0.705661 648.88 1.54192C693.347 4.7779 736.927 11.0319 778.414 20.1323C840.38 33.7234 900.324 54.8234 978.851 90.6812C1018.31 108.701 1062.37 130.607 1121.69 161.708C1152.88 178.099 1179.54 190.647 1205.62 201.2C1270.72 227.546 1339.79 245.251 1410.92 253.823C1435.53 256.795 1461.15 258.937 1487.06 260.192C1518.62 261.671 1549.7 261.86 1579.44 260.753C1627.66 258.955 1679.28 255.457 1730.09 242.132C1755.84 235.378 1778.64 226.044 1799.78 213.602C1836.37 192.067 1862.91 164.911 1888.57 138.649C1902.7 124.186 1916.05 110.524 1930.42 98.5004C1934.19 95.3502 1938 92.1142 1941.69 88.9839C1956.63 76.3152 1972.08 63.2171 1989.5 51.255C2008.78 37.9324 2029 27.3946 2049.59 19.932C2073.7 11.1904 2097.81 6.92201 2121.22 7.23681C2135.51 7.43052 2149.95 8.93845 2165.39 11.8442C2205.16 19.3354 2243.39 35.938 2280.36 51.9968C2282.05 52.7321 2283.74 53.4673 2285.43 54.1982C2320.97 69.6164 2355.2 87.7688 2387.17 108.151C2453.46 150.298 2513.2 203.806 2564.73 267.19L2563.99 267.399Z" fill="#FFE492"/>
  </svg>
  <svg x="-352.9" y="331.77" width="2563.896" height="262.42" viewBox="0 0 2563.9 262.42" opacity="0.3">
    <path d="M1599.01 262.42C1596.96 262.42 1594.93 262.418 1592.94 262.411C1563.31 262.336 1532.21 260.95 1500.49 258.286C1474.63 256.074 1449.15 253.02 1424.73 249.214C1389.85 243.786 1354.85 235.984 1320.68 226.027C1287.68 216.412 1254.46 204.489 1221.91 190.588C1190.02 176.968 1160.24 161.792 1137.85 150.092C1085.47 122.791 1035.63 99.9715 989.722 82.2661C915.364 53.5913 849.101 36.1104 781.181 27.2544C740.206 21.9117 696.245 19.094 653.918 19.094C653.262 19.094 652.61 19.094 651.954 19.0962C615.592 19.171 581.07 23.2303 549.186 27.6066C540.887 28.7535 532.302 30.0061 523.669 31.3335C518.939 32.0687 514.202 32.826 509.189 33.6273C473.835 39.2869 433.762 45.6995 385.078 45.1734C355.429 44.852 325.145 43.0072 295.859 41.2219C276.949 40.0684 257.398 38.8775 238.748 38.1577C213.111 37.1692 189.518 37.4862 168.618 39.1042C93.3593 44.9246 30.5836 60.563 0.688838 80.9387L0 80.5754C15.3339 70.1256 38.399 61.0781 68.5539 53.6816C97.3531 46.6196 131.916 41.3892 168.501 38.5605C189.456 36.9403 213.111 36.6189 238.806 37.6117C257.475 38.3316 277.037 39.5247 295.954 40.6782C325.222 42.4635 355.487 44.3082 385.096 44.6274C433.655 45.1535 473.659 38.7498 508.955 33.1012C513.971 32.2977 518.708 31.5404 523.442 30.8051C532.082 29.4777 540.674 28.223 548.981 27.0761C580.92 22.6932 615.501 18.6273 651.951 18.5502C694.952 18.46 739.7 21.2865 781.375 26.7216C816.429 31.2938 850.412 38.0234 885.261 47.2955C918.823 56.2263 953.155 67.5148 990.213 81.8082C1036.16 99.5268 1086.03 122.364 1138.45 149.682C1160.82 161.376 1190.58 176.541 1222.44 190.145C1288.47 218.353 1356.61 238.049 1424.96 248.688C1449.34 252.49 1474.79 255.539 1500.61 257.749C1532.29 260.408 1563.35 261.795 1592.94 261.868C1639.23 261.982 1692.98 261.044 1745.4 248.353C1771.94 241.93 1794.89 232.537 1815.59 219.639C1851.92 196.987 1876.01 167.914 1899.31 139.796C1911.29 125.333 1922.61 111.672 1934.92 99.8461C1938.86 96.0575 1942.84 92.1545 1946.69 88.3792C1959.69 75.6246 1973.13 62.4385 1988.61 50.2497C2006.31 36.2271 2025.3 24.8527 2045.05 16.4435C2067.96 6.69377 2091.3 1.23882 2114.45 0.230603C2128.73 -0.392378 2143.23 0.243817 2158.78 2.1766C2200.33 7.34097 2241.52 22.3454 2283.57 38.5847C2320.23 52.7438 2356.72 70.7838 2389.09 90.7567C2425.04 112.878 2458.83 138.83 2489.5 167.89C2516.83 193.78 2541.86 222.278 2563.9 252.595L2563.06 252.816C2515.73 187.709 2456.98 133.313 2388.43 91.1419C2356.11 71.1977 2319.68 53.184 2283.07 39.0492C2241.1 22.8385 2199.99 7.86269 2158.59 2.71593C2143.13 0.794157 2128.71 0.162362 2114.52 0.780941C2071.99 2.63668 2027.53 20.3223 1989.34 50.5843C1973.89 62.7511 1960.46 75.9262 1947.47 88.6676C1943.62 92.4451 1939.64 96.3503 1935.7 100.139C1923.41 111.942 1912.1 125.593 1900.13 140.043C1888.7 153.839 1876.88 168.105 1863.31 181.82C1847.94 197.368 1832.54 209.863 1816.25 220.022C1795.47 232.977 1772.41 242.412 1745.75 248.866C1722.24 254.559 1696.97 258.321 1668.49 260.373C1644.38 262.101 1620.16 262.42 1599.01 262.42Z" fill="#FFE492"/>
  </svg>
  <svg x="-354.24" y="322.23" width="2563.042" height="273.029" viewBox="0 0 2563.04 273.029" opacity="0.3">
    <path d="M1659.04 273.029C1640.35 273.029 1622.41 272.36 1606.35 271.682C1576.83 270.436 1545.74 267.85 1513.94 263.993C1488.2 260.825 1462.87 256.867 1438.67 252.225C1372.39 239.538 1306.95 218.421 1238.62 187.67C1208.82 174.262 1180.73 159.834 1154.52 146.208C1102.77 119.384 1051.14 97.6348 1001.07 81.5605C927.419 57.9202 858.514 45.3527 784.214 42.0111C741.88 40.1069 697.238 40.884 655.109 44.2565C619.846 47.0786 586.603 53.8895 555.568 60.6213C547.804 62.3141 539.546 64.1632 531.027 66.1158C528.898 66.6067 526.751 67.1064 524.574 67.6106C488.832 75.914 448.388 85.3094 396.484 85.3094C395.608 85.3094 394.736 85.3072 393.853 85.3006C358.737 85.0871 322.885 82.0756 288.208 79.161C274.461 78.0053 260.245 76.8122 246.603 75.8458C219.959 73.9615 196.883 73.4045 176.053 74.1486C100.292 76.8562 36.3435 87.8101 0.611908 104.208L0 103.726C17.6643 95.6205 43.2062 88.5828 73.8557 83.3744C104.003 78.2519 139.321 74.853 175.99 73.5432C196.879 72.7969 220.014 73.3539 246.717 75.2426C260.373 76.209 274.593 77.4044 288.344 78.5579C322.987 81.468 358.807 84.4773 393.857 84.6908C446.842 85.0166 487.945 75.465 524.204 67.0404C526.377 66.5363 528.528 66.0366 530.657 65.5435C539.183 63.5887 547.445 61.7396 555.217 60.0467C586.302 53.3018 619.608 46.482 654.966 43.6511C697.161 40.2742 741.877 39.4949 784.28 41.4013C821.1 43.0567 856.205 46.9663 891.6 53.3502C928.053 59.9256 964.012 68.9754 1001.53 81.0212C1051.67 97.1175 1103.36 118.893 1155.17 145.743C1181.37 159.365 1209.44 173.784 1239.22 187.179C1307.46 217.888 1372.79 238.975 1438.96 251.641C1463.13 256.275 1488.42 260.229 1514.13 263.392C1545.88 267.244 1576.93 269.829 1606.41 271.07C1656.01 273.162 1708.78 274.236 1760.69 262.663C1788.01 256.572 1811.13 247.12 1831.36 233.764C1867.41 209.974 1889.84 177.524 1909.64 148.893C1919.6 134.488 1929.01 120.881 1939.39 109.282C1943.13 105.097 1946.9 100.772 1950.55 96.5891C1961.95 83.5021 1973.74 69.9704 1987.7 57.3324C2003.84 42.6098 2021.61 30.3989 2040.49 21.0388C2062.18 10.2896 2084.78 3.65035 2107.64 1.31032C2121.94 -0.153579 2136.49 -0.386926 2152.13 0.590473C2195.82 3.32675 2240.21 16.8474 2281.67 31.0527C2319.96 44.1684 2357.75 61.5943 2390.98 81.446C2427.94 103.464 2461.99 129.675 2492.19 159.347C2519.2 185.882 2543.03 215.064 2563.04 246.085L2562.1 246.303C2519.57 180.364 2460.15 123.505 2390.27 81.8731C2357.11 62.0588 2319.39 44.6659 2281.18 31.5767C2239.82 17.4044 2195.54 3.91671 2152.03 1.19144C2136.48 0.21844 2122.02 0.451795 2107.82 1.90469C2065.6 6.22593 2023.24 26.0271 1988.54 57.6626C1974.61 70.2742 1962.84 83.7927 1951.44 96.8665C1947.8 101.051 1944.03 105.377 1940.28 109.566C1929.92 121.139 1920.52 134.732 1910.57 149.122C1890.74 177.797 1868.27 210.3 1832.11 234.169C1811.76 247.597 1788.52 257.103 1761.05 263.229C1737.21 268.543 1711.49 271.621 1682.43 272.631C1674.57 272.917 1666.74 273.029 1659.04 273.029Z" fill="#FFE492"/>
  </svg>
  <svg x="-355.39" y="311.79" width="2562.167" height="285.883" viewBox="0 0 2562.17 285.883" opacity="0.3">
    <path d="M1697.15 285.883C1696.88 285.883 1696.61 285.883 1696.35 285.883C1669.94 285.843 1644.02 283.901 1619.73 281.916C1590.25 279.508 1559.18 275.719 1527.36 270.66C1501.74 266.542 1476.57 261.674 1452.57 256.197C1388.94 241.697 1326.26 219.303 1255.31 185.717C1229.76 173.625 1204.61 160.604 1180.29 148.014C1177.25 146.438 1174.2 144.864 1171.16 143.29C1119.14 116.473 1065.72 95.7917 1012.39 81.822C939.364 62.6944 865.713 54.8136 787.23 57.7304C744.196 59.3308 699.594 63.7049 658.245 70.3793C625.621 75.6472 596.551 84.0982 561.933 94.5986C554.916 96.7361 547.423 99.0431 538.359 101.861L537.853 102.019C520.365 107.492 500.542 113.693 478.309 118.408C452.774 123.824 428.002 126.43 402.599 126.399C362.987 126.34 322.562 121.911 283.471 117.625C273.893 116.575 263.986 115.489 254.422 114.508C226.997 111.696 203.782 110.277 183.45 110.169C108.587 109.772 41.8945 116.438 0.476341 128.453L0 127.859C20.2877 121.972 47.6543 117.195 79.1392 114.043C110.683 110.884 146.759 109.317 183.461 109.511C203.852 109.618 227.125 111.04 254.609 113.858C264.18 114.84 274.087 115.925 283.669 116.975C322.712 121.255 363.086 125.679 402.603 125.739C402.779 125.739 402.958 125.739 403.134 125.739C459.659 125.739 502.722 112.267 537.347 101.434L537.857 101.275C546.925 98.4554 554.418 96.1483 561.438 94.0108C596.115 83.4928 625.236 75.0264 657.963 69.7432C699.381 63.0555 744.057 58.6748 787.164 57.0722C825.57 55.6457 861.797 56.7332 897.92 60.4006C936.847 64.352 974.436 71.1608 1012.83 81.2188C1066.26 95.215 1119.77 115.93 1171.88 142.791C1174.92 144.364 1177.97 145.941 1181.01 147.517C1205.32 160.102 1230.46 173.119 1255.99 185.202C1326.85 218.746 1389.44 241.109 1452.96 255.585C1476.93 261.056 1502.06 265.914 1527.64 270.029C1559.42 275.081 1590.45 278.863 1619.88 281.266C1672.59 285.577 1724.2 288.566 1775.97 277.964C1804.07 272.21 1827.34 262.698 1847.11 248.882C1882.84 223.926 1902.35 189.345 1919.57 158.832C1927.64 144.547 1935.25 131.053 1943.84 119.714C1947.14 115.351 1950.46 110.838 1953.66 106.473C1963.69 92.8243 1974.05 78.7136 1986.77 65.4087C2001.4 49.9794 2017.93 36.9298 2035.91 26.6231C2056.4 14.8767 2078.24 7.05753 2100.82 3.38568C2114.82 1.10948 2129.1 0 2144.45 0C2144.79 0 2145.12 2.1498e-06 2145.46 0.0022035C2193.19 0.151895 2242.3 13.1795 2279.76 24.512C2319.67 36.5864 2358.77 53.3959 2392.85 73.1244C2430.82 95.0411 2465.14 121.51 2494.86 151.798C2521.53 178.979 2544.18 208.844 2562.17 240.57L2561.13 240.784C2534.36 193.578 2483.3 126.256 2392.09 73.6021C2358.09 53.9177 2319.08 37.1478 2279.27 25.102C2241.92 13.8003 2192.95 0.810099 2145.45 0.662608C2129.81 0.607575 2115.31 1.71264 2101.1 4.02406C2059.27 10.8284 2019 32.7451 1987.72 65.7367C1975.04 79.0108 1964.68 93.1061 1954.67 106.739C1951.46 111.106 1948.14 115.621 1944.84 119.987C1936.27 131.297 1928.66 144.774 1920.61 159.043C1903.36 189.611 1883.81 224.258 1847.95 249.312C1828.04 263.22 1804.61 272.796 1776.33 278.587C1752.35 283.494 1726.44 285.883 1697.15 285.883Z" fill="#FFE492"/>
  </svg>
  <svg x="-356.74" y="300.35" width="2561.262" height="300.47" viewBox="0 0 2561.26 300.47" opacity="0.3">
    <path d="M1727.67 300.47C1721.99 300.47 1716.18 300.36 1710.23 300.14C1684.18 299.178 1658.87 296.292 1633.08 293.166C1603.17 289.542 1572.98 284.695 1540.75 278.346C1515.26 273.279 1490.26 267.507 1466.45 261.187C1406.04 245.179 1346.06 221.613 1271.97 184.78C1253.57 175.634 1235.18 166.04 1217.39 156.762C1207.7 151.712 1197.69 146.488 1187.77 141.387C1135.14 114.39 1079.93 94.7804 1023.7 83.1C949.396 67.6663 873.03 64.8398 790.231 74.4597C746.486 79.5426 701.924 87.5137 661.367 97.51C628.787 105.541 600.405 116.818 570.356 128.758L568.279 129.584C563.585 131.455 558.84 133.352 554.037 135.272C551.271 136.379 548.486 137.493 545.676 138.616C528.154 145.654 509.23 152.995 487.528 158.646C462.33 165.206 437.407 168.433 411.327 168.512C367.908 168.64 323.621 162.578 280.796 156.709C274.684 155.87 268.36 155.005 262.223 154.184C233.45 150.331 210.766 148.115 190.826 147.203C117.245 143.842 47.8045 146.21 0.304143 153.704L0 153.013C47.625 145.499 117.208 143.122 190.918 146.49C210.912 147.404 233.655 149.627 262.483 153.486C268.624 154.309 274.948 155.174 281.064 156.013C323.365 161.809 367.091 167.799 409.935 167.799C410.396 167.799 410.858 167.799 411.323 167.797C466.738 167.63 506.185 153.616 545.02 138.021C547.83 136.899 550.615 135.785 553.381 134.678C558.185 132.756 562.926 130.86 567.623 128.987L569.701 128.162C599.801 116.202 628.23 104.904 660.916 96.8474C701.547 86.8313 746.186 78.847 790.007 73.7553C873.016 64.1112 949.586 66.9465 1024.09 82.422C1080.47 94.1332 1135.8 113.787 1188.55 140.844C1198.47 145.946 1208.48 151.168 1218.17 156.22C1235.95 165.497 1254.34 175.088 1272.73 184.228C1346.73 221.019 1406.63 244.551 1466.93 260.533C1490.71 266.842 1515.67 272.608 1541.13 277.666C1573.3 284.006 1603.46 288.847 1633.32 292.464C1678.64 297.956 1735.05 304.793 1791.22 294.262C1820.1 288.849 1843.53 279.278 1862.84 265C1898.22 238.848 1914.62 202.065 1929.1 169.615C1935.39 155.518 1941.33 142.202 1948.26 131.151C1950.96 126.845 1953.67 122.392 1956.28 118.084C1965.06 103.636 1974.14 88.698 1985.8 74.4905C1998.95 58.3436 2014.26 44.4553 2031.29 33.2108C2050.59 20.4694 2071.68 11.4725 2093.95 6.46884C2108.25 3.25707 2122.9 1.27806 2138.75 0.417335C2159.97 -0.736172 2182.56 0.496574 2207.8 4.17723C2229.17 7.29434 2252.07 12.1329 2277.82 18.9725C2319.34 30.0035 2359.76 46.1988 2394.69 65.8062C2433.67 87.6194 2468.26 114.35 2497.5 145.253C2523.83 173.08 2545.29 203.63 2561.26 236.059L2560.12 236.261C2526.39 167.799 2467.35 107.449 2393.88 66.3301C2359.04 46.7755 2318.74 30.6264 2277.33 19.6285C2221.85 4.89267 2177.85 -0.987128 2138.85 1.13057C2123.11 1.98469 2108.56 3.95049 2094.37 7.13805C2041.37 19.0407 2006.65 50.5068 1986.87 74.8053C1975.24 88.9776 1966.17 103.898 1957.4 118.328C1954.78 122.638 1952.07 127.094 1949.37 131.402C1942.46 142.42 1936.53 155.72 1930.25 169.8C1915.75 202.321 1899.3 239.18 1863.76 265.451C1844.3 279.841 1820.68 289.49 1791.57 294.947C1771.84 298.645 1750.8 300.47 1727.67 300.47Z" fill="#FFE492"/>
  </svg>
  <svg x="-357.89" y="287.91" width="2560.338" height="316.386" viewBox="0 0 2560.34 316.386" opacity="0.3">
    <path d="M1754.28 316.386C1715.54 316.386 1678.28 310.405 1646.41 305.289C1616.43 300.477 1586.25 294.463 1554.14 286.906C1528.78 280.896 1503.95 274.217 1480.31 267.052C1409.47 245.597 1346.31 214.803 1288.62 184.719C1276.84 178.577 1264.94 172.246 1253.43 166.124C1237.46 157.623 1220.94 148.833 1204.38 140.362C1150.96 113.098 1093.97 94.5562 1035.01 85.2511C958.736 73.2163 879.648 75.4418 793.228 92.0576C748.732 100.612 704.214 112.18 664.485 125.512C633.843 135.792 607.916 148.771 580.469 162.512C578.524 163.485 576.574 164.462 574.614 165.44L573.551 165.972C566.879 169.316 559.98 172.772 552.985 176.242C536.226 184.591 517.77 193.227 496.424 199.825C471.644 207.483 446.663 211.302 420.044 211.501C373.32 211.851 325.699 203.959 279.649 196.327C276.421 195.792 273.208 195.259 270.009 194.733C239.642 189.727 217.489 186.76 198.187 185.109C126.453 178.976 54.2568 177.047 0.109894 179.819L0 179.051C54.2349 176.272 126.537 178.203 198.367 184.345C217.724 186 239.924 188.974 270.346 193.989C273.545 194.515 276.758 195.048 279.99 195.585C325.951 203.202 373.481 211.074 420.025 210.73C477.833 210.299 518.543 192.395 552.165 175.647C559.159 172.178 566.058 168.722 572.731 165.38L573.793 164.847C575.753 163.868 577.703 162.893 579.648 161.92C607.143 148.155 633.114 135.153 663.859 124.838C703.661 111.482 748.263 99.8944 792.836 91.3246C833.807 83.4481 872.29 78.9002 910.48 77.4209C953.082 75.7721 995.086 78.1561 1035.33 84.507C1094.48 93.8407 1151.64 112.436 1205.21 139.774C1221.78 148.249 1238.3 157.041 1254.28 165.545C1265.78 171.667 1277.68 177.996 1289.45 184.136C1347.09 214.186 1410.17 244.948 1480.88 266.363C1504.48 273.517 1529.29 280.187 1554.6 286.188C1586.66 293.734 1616.8 299.739 1646.74 304.545C1692.71 311.924 1749.92 321.108 1806.45 311.444C1836.11 306.372 1859.69 296.741 1878.54 282.001C1913.56 254.618 1926.66 215.573 1938.22 181.122C1942.87 167.28 1947.25 154.206 1952.66 143.47C1954.66 139.499 1956.67 135.396 1958.61 131.427C1966.21 115.903 1974.07 99.8482 1984.82 84.4542C1996.51 67.5764 2010.58 52.845 2026.64 40.6737C2044.77 26.9395 2065.09 16.7649 2087.06 10.4316C2101.33 6.31949 2116.03 3.46875 2132.01 1.71428C2153.54 -0.64777 2177.43 -0.56852 2203.02 1.94982C2225.42 4.15557 2249.93 8.31392 2275.84 14.3126C2318.99 24.3001 2360.72 39.8791 2396.51 59.3654C2436.5 81.0773 2471.36 108.066 2500.12 139.585C2526.11 168.059 2546.37 199.296 2560.34 232.427L2559.1 232.616C2529.49 162.415 2471.45 101.09 2395.65 59.9377C2359.97 40.5152 2318.38 24.9869 2275.38 15.0324C2219.64 2.13033 2172.82 -1.97958 2132.25 2.47374C2116.38 4.21501 2101.78 7.04594 2087.62 11.1272C2035.35 26.1955 2003.51 59.4799 1986 84.7513C1975.28 100.106 1967.43 116.138 1959.84 131.642C1957.9 135.611 1955.89 139.717 1953.89 143.692C1948.5 154.393 1944.12 167.449 1939.48 181.274C1933.92 197.848 1927.61 216.632 1918.46 234.243C1907.98 254.42 1895.26 270.195 1879.56 282.47C1870.49 289.567 1860.06 295.608 1848.57 300.424C1836.2 305.604 1822.15 309.562 1806.8 312.186C1789.23 315.191 1771.61 316.386 1754.28 316.386Z" fill="#FFE492"/>
  </svg>
  <svg x="-359.04" y="274.65" width="2559.507" height="333.544" viewBox="0 0 2559.51 333.544" opacity="0.3">
    <path d="M1778.45 333.544C1765.65 333.544 1752.22 332.796 1738.05 331.301C1710.13 328.358 1683.4 323.018 1659.82 318.309C1630.1 312.372 1599.06 304.986 1567.59 296.359C1542.4 289.416 1517.72 281.83 1494.25 273.809C1426.88 250.811 1368.84 220.232 1305.34 185.552C1299.69 182.47 1293.96 179.327 1288.42 176.285C1266.61 164.311 1244.05 151.931 1221.06 140.233C1166.75 112.65 1107.98 95.178 1046.39 88.301C968.698 79.6255 884.55 87.1101 796.295 110.55C751.007 122.578 706.53 137.741 667.673 154.403C638.416 166.949 614.332 181.739 588.834 197.4C586.244 198.991 583.642 200.587 581.026 202.19C574.515 206.183 567.502 210.469 560.368 214.76C545.408 223.787 527.176 234.074 505.393 241.896C481.009 250.653 455.966 255.066 428.837 255.386C379.175 255.973 328.623 246.094 279.734 236.54L277.872 236.177C253.935 231.501 228.613 226.777 205.625 223.908C135.554 215.167 62.5265 209.098 0 206.819L0.0842654 205.996C62.6768 208.277 135.77 214.35 205.903 223.101C228.957 225.978 254.324 230.708 278.297 235.391L280.159 235.754C328.941 245.286 379.391 255.141 428.812 254.558C485.886 253.884 525.304 234.75 559.397 214.172C566.531 209.884 573.537 205.598 580.048 201.607C582.664 200.006 585.265 198.408 587.856 196.819C613.398 181.132 637.525 166.315 666.878 153.727C705.808 137.032 750.37 121.841 795.742 109.791C837.149 98.7948 877.896 91.2178 916.845 87.2729C961.348 82.7668 1005.02 82.8372 1046.65 87.4843C1108.47 94.3877 1167.46 111.921 1221.95 139.599C1244.95 151.308 1267.52 163.693 1289.36 175.673C1294.9 178.713 1300.63 181.856 1306.27 184.938C1369.7 219.585 1427.68 250.131 1494.93 273.089C1518.37 281.097 1543.01 288.672 1568.17 295.606C1599.6 304.22 1630.58 311.595 1660.26 317.523C1706.78 326.817 1764.68 338.381 1821.77 329.52C1852.23 324.794 1875.96 315.106 1894.34 299.899C1928.97 271.248 1938.99 228.065 1947.04 193.365C1950.18 179.848 1953.14 167.083 1957.16 156.693C1958.42 153.417 1959.7 150.042 1960.93 146.778C1967.35 129.818 1973.98 112.28 1983.93 95.3211C1999.29 68.9291 2028.48 33.6239 2080.27 15.302C2094.57 10.2433 2109.32 6.51867 2125.37 3.91668C2167.36 -2.98895 2217.36 -0.754592 2273.96 10.5537C2318.73 19.4978 2361.77 34.4604 2398.42 53.8257C2439.42 75.4341 2474.55 102.682 2502.84 134.82C2515.81 149.56 2527.27 165.304 2536.92 181.614C2546.13 197.193 2553.73 213.371 2559.51 229.698L2558.16 229.87C2532.71 157.925 2475.66 95.6249 2397.51 54.4442C2360.99 35.1516 2318.12 20.2463 2273.53 11.3352C2217.18 0.0775155 2167.46 -2.15024 2125.73 4.71136C2109.8 7.29354 2095.16 10.9896 2080.96 16.0109C2029.53 34.205 2000.51 69.3298 1985.23 95.5918C1975.3 112.507 1968.68 130.021 1962.27 146.958C1961.04 150.223 1959.76 153.6 1958.49 156.877C1954.49 167.233 1951.53 179.981 1948.4 193.477C1944.35 210.938 1939.76 230.728 1931.91 249.407C1922.89 270.87 1910.97 287.545 1895.45 300.383C1886.6 307.707 1876.24 313.884 1864.68 318.74C1852.22 323.973 1837.9 327.869 1822.12 330.317C1808.26 332.47 1793.79 333.544 1778.45 333.544Z" fill="#FFE492"/>
  </svg>
  <svg x="-360.58" y="260.72" width="2558.778" height="351.661" viewBox="0 0 2558.78 351.661" opacity="0.3">
    <path d="M1800.95 351.661C1785.6 351.661 1769.41 350.466 1752.11 348.068C1724.09 344.187 1697.13 337.746 1673.34 332.062C1643.4 324.908 1612.38 316.325 1581.16 306.549C1556.13 298.679 1531.62 290.186 1508.3 281.304C1444.14 256.88 1389.1 225.4 1330.84 192.076C1327.96 190.428 1325.07 188.777 1322.18 187.126C1295.09 171.646 1267.07 155.637 1237.86 140.844C1182.61 112.912 1122.06 96.5071 1057.9 92.0868C977.316 86.5327 890.372 99.2147 799.482 129.776C754.019 145.062 708.384 164.331 670.981 184.031C642.739 198.905 620.088 215.642 596.107 233.363C593.268 235.461 590.421 237.565 587.552 239.674C581.821 243.894 575.002 248.898 567.865 254.016C554.645 263.519 536.633 275.596 514.48 284.681C490.484 294.523 465.386 299.54 437.748 300.013C415.031 300.354 389.962 298.248 361.104 293.57C336.328 289.554 312.362 284.306 285.841 278.363C261.633 272.87 236.084 267.197 213.162 263.451C145.264 252.352 73.5443 242.633 0 234.558L0.263799 233.693C73.852 241.77 145.612 251.497 213.547 262.601C236.531 266.359 262.117 272.04 286.354 277.537C330.806 287.503 386.129 299.91 437.708 299.132C496.677 298.12 534.574 276.577 566.74 253.448C573.874 248.334 580.689 243.333 586.416 239.115C589.285 237.006 592.132 234.901 594.968 232.806C618.989 215.056 641.68 198.291 670.014 183.368C707.493 163.628 753.217 144.323 798.768 129.008C889.932 98.354 977.177 85.639 1058.07 91.2128C1089.09 93.3503 1119.55 98.3144 1148.62 105.966C1179.8 114.175 1210.15 125.686 1238.81 140.173C1268.05 154.982 1296.08 170.999 1323.19 186.489C1326.08 188.143 1328.97 189.791 1331.85 191.44C1390.06 224.736 1445.05 256.184 1509.09 280.562C1532.37 289.431 1556.85 297.913 1581.84 305.77C1613.02 315.53 1643.99 324.102 1673.89 331.246C1720.89 342.473 1779.37 356.445 1837.21 348.341C1868.53 343.952 1892.43 334.204 1910.24 318.544C1944.56 288.632 1950.67 242.939 1955.59 206.224C1957.35 193.093 1959.01 180.691 1961.76 170.662C1962.33 168.592 1962.89 166.512 1963.46 164.421C1968.6 145.531 1973.91 125.996 1983.15 106.933C1996.33 79.5127 2022.72 42.3319 2073.58 20.9171C2087.76 14.9427 2102.57 10.3463 2118.83 6.86374C2141.45 1.97895 2166.64 -0.317065 2193.72 0.0351512C2218.45 0.356548 2244.85 2.8815 2272.18 7.53735C2318.56 15.4336 2362.91 29.7798 2400.43 49.024C2442.45 70.5268 2477.85 98.0392 2505.65 130.793C2518.41 145.822 2529.46 161.889 2538.49 178.549C2547.13 194.505 2553.96 211.045 2558.78 227.712L2557.33 227.862C2536.35 155.237 2478.82 90.2971 2399.48 49.6932C2362.12 30.5326 2317.96 16.2459 2271.78 8.38047C2214.84 -1.31867 2162.12 -1.55642 2119.32 7.68925C2103.18 11.1454 2088.49 15.7066 2074.41 21.6348C2023.91 42.902 1997.67 79.8913 1984.55 107.175C1975.34 126.188 1970.04 145.694 1964.91 164.56C1964.34 166.651 1963.77 168.733 1963.2 170.803C1960.46 180.795 1958.8 193.182 1957.05 206.293C1952.12 243.113 1945.99 288.938 1911.45 319.041C1902.86 326.59 1892.59 332.908 1880.93 337.815C1868.38 343.093 1853.78 346.924 1837.54 349.2C1825.82 350.838 1813.67 351.661 1800.95 351.661Z" fill="#FFE492"/>
  </svg>
  <svg x="-361.92" y="246.05" width="2558.049" height="370.628" viewBox="0 0 2558.05 370.628" opacity="0.3">
    <path d="M1822.17 370.628C1804.68 370.628 1786.15 368.928 1766.18 365.516C1737.92 360.689 1710.79 353.149 1686.86 346.499C1656.62 338.094 1625.62 328.309 1594.72 317.421C1569.87 308.638 1545.53 299.236 1522.35 289.481C1465.27 265.469 1416.49 236.053 1364.85 204.908C1356.41 199.816 1347.68 194.553 1339.01 189.377C1308.57 171.194 1282.57 156.201 1254.66 142.136C1198.41 113.834 1136.09 98.4968 1069.41 96.5508C985.618 94.1051 895.868 111.98 802.656 149.678C756.35 168.407 710.754 191.367 674.272 214.332C646.788 231.632 625.302 250.465 602.556 270.402C599.738 272.872 596.91 275.351 594.063 277.832C588.992 282.259 582.279 288.092 575.35 293.941C546.192 318.614 508.097 344.015 446.648 345.314C444.732 345.352 442.808 345.369 440.888 345.369C392.904 345.369 343.916 333.96 293.8 321.221L290.671 320.419C265.847 314.053 242.397 308.041 220.691 303.665C138.892 287.172 59.7822 273.251 0 262.966L0.428707 262.066C60.2256 272.355 139.357 286.278 221.186 302.778C242.95 307.165 266.426 313.186 291.282 319.558L294.408 320.36C346.36 333.566 397.096 345.345 446.593 344.381C507.361 343.095 545.137 317.89 574.079 293.402C581.004 287.557 587.709 281.728 592.78 277.304C595.627 274.82 598.452 272.344 601.27 269.874C624.053 249.906 645.572 231.042 673.143 213.687C709.699 190.674 755.386 167.668 801.783 148.901C844.847 131.484 887.925 118.111 929.819 109.149C977.887 98.8666 1024.88 94.3142 1069.48 95.6152C1136.51 97.57 1199.15 112.982 1255.65 141.416C1283.6 155.503 1309.63 170.512 1340.11 188.71C1348.77 193.886 1357.5 199.151 1365.95 204.243C1417.54 235.357 1466.27 264.745 1523.24 288.709C1546.38 298.452 1570.69 307.838 1595.5 316.609C1626.36 327.483 1657.31 337.253 1687.51 345.644C1734.91 358.82 1793.91 375.215 1852.63 367.834C1884.73 363.799 1908.77 353.994 1926.13 337.86C1960.02 306.586 1962.06 258.321 1963.7 219.54C1964.23 206.887 1964.74 194.933 1966.35 185.303L1966.39 185.082C1970.01 163.516 1973.76 141.216 1982.35 119.214C1989.8 100.022 2000.16 82.7682 2013.16 67.9267C2027.81 51.1942 2045.88 37.493 2066.87 27.2017C2080.91 20.3159 2095.77 14.8455 2112.28 10.4802C2156.9 -1.38283 2211.57 -3.21435 2270.39 5.1882C2294.07 8.56947 2317.42 13.692 2339.8 20.4105C2362.32 27.1687 2383.4 35.4083 2402.44 44.8961C2445.48 66.2955 2481.15 94.0677 2508.47 127.442C2533.03 157.44 2550.17 191.66 2558.05 226.4L2556.51 226.525C2539.65 152.172 2483.13 86.2331 2401.45 45.616C2363.25 26.5919 2317.81 12.9259 2270.04 6.10396C2211.55 -2.25016 2157.22 -0.438457 2112.91 11.3432C2096.53 15.6754 2081.8 21.1018 2067.86 27.9325C2028.68 47.1481 1999.64 78.7881 1983.87 119.432C1975.3 141.377 1971.56 163.646 1967.94 185.182L1967.91 185.402C1966.29 194.997 1965.79 206.933 1965.25 219.569C1963.61 258.469 1961.56 306.879 1927.44 338.373C1919.07 346.153 1908.87 352.607 1897.14 357.556C1884.49 362.892 1869.62 366.659 1852.95 368.756C1843.02 370.002 1832.79 370.628 1822.17 370.628Z" fill="#FFE492"/>
  </svg>
  <svg x="-363.26" y="230.79" width="2557.305" height="391.273" viewBox="0 0 2557.3 391.273" opacity="0.3">
    <path d="M449.154 391.273C427.698 391.273 404.332 388.762 377.962 383.633C351.761 378.536 325.849 371.501 301.747 364.659C297.383 363.413 293.052 362.169 288.751 360.934C267.338 354.786 247.113 348.979 228.21 344.455C152.837 326.424 80.9932 310.218 11.5124 294.548L0 291.951L0.578899 291.024L12.0913 293.622C81.5758 309.295 153.431 325.502 228.818 343.537C247.772 348.072 268.023 353.886 289.461 360.043C293.759 361.278 298.09 362.522 302.45 363.765C351.926 377.81 404.49 391.421 455.471 390.208C518.14 388.641 555.697 359.31 581.411 333.935C587.999 327.445 594.345 320.978 599.137 316.069C601.783 313.363 604.41 310.66 607.03 307.963C628.757 285.609 649.279 264.493 676.269 244.584C711.894 218.309 757.537 191.598 804.795 169.375C848.639 148.757 892.882 132.467 936.301 120.959C986.102 107.757 1034.75 100.907 1080.88 100.596C1150.3 99.9755 1214.77 114.324 1272.49 143.239C1304.48 159.286 1333.17 176.646 1357.01 191.512C1369.99 199.602 1382.96 207.894 1395.51 215.914C1439.93 244.305 1485.86 273.66 1537.38 297.437C1560.39 308.06 1584.54 318.354 1609.16 328.029C1639.62 339.975 1670.56 350.943 1701.12 360.624C1748.89 375.756 1808.33 394.589 1868.05 387.905C1900.92 384.227 1925.11 374.365 1942.01 357.756C1975.45 325.063 1973.19 274.155 1971.38 233.25C1970.84 221.153 1970.33 209.726 1970.94 200.527C1972.32 179.788 1974.39 155.685 1981.56 132.078C1987.6 112.074 1996.72 93.9768 2008.68 78.29C2022.2 60.5449 2039.52 45.6682 2060.16 34.0715C2073.84 26.3865 2089.17 19.8639 2105.72 14.682C2129.34 7.26342 2155.84 2.59877 2184.5 0.820075C2211.33 -0.846346 2239.63 0.0297924 2268.59 3.42207C2293.02 6.28383 2317.09 10.9903 2340.15 17.4138C2363.35 23.877 2384.99 31.9295 2404.44 41.3469C2426.87 52.1908 2447.5 64.996 2465.74 79.4083C2483.03 93.0632 2498.35 108.292 2511.28 124.67C2535.47 155.311 2551.38 190.237 2557.3 225.668L2555.66 225.767C2542.95 149.682 2487.45 82.7455 2403.41 42.1196C2364.92 23.4918 2316.93 10.0944 2268.28 4.39507C2208.12 -2.65145 2152.17 1.20972 2106.48 15.5603C2090.06 20.7005 2074.86 27.1724 2061.29 34.7957C2022.39 56.6463 1996.11 89.4354 1983.18 132.256C1976.02 155.799 1973.96 179.86 1972.59 200.566C1971.98 209.733 1972.49 221.142 1973.03 233.223C1973.92 253.403 1974.93 276.277 1971.53 298.39C1967.59 324.049 1958.39 343.636 1943.42 358.273C1935.27 366.282 1925.15 372.875 1913.35 377.867C1900.59 383.261 1885.45 386.965 1868.35 388.878C1859.72 389.845 1851.1 390.283 1842.53 390.283C1791.21 390.283 1741.48 374.526 1700.36 361.498C1669.75 351.801 1638.77 340.819 1608.26 328.854C1583.61 319.166 1559.42 308.857 1536.38 298.218C1484.76 274.393 1438.78 245.007 1394.31 216.59C1381.77 208.572 1368.8 200.282 1355.83 192.197C1332.02 177.349 1303.37 160.013 1271.44 143.996C1214.03 115.235 1149.94 100.97 1080.91 101.582C972.498 102.313 871.473 139.272 805.814 170.15C758.651 192.329 713.099 218.983 677.551 245.205C650.642 265.055 630.15 286.137 608.455 308.456C605.835 311.153 603.204 313.856 600.559 316.564C595.763 321.475 589.413 327.947 582.821 334.443C572.027 345.096 555.081 360.602 532.635 372.225C521.735 377.869 510.135 382.305 498.157 385.411C484.801 388.874 470.461 390.82 455.541 391.192C453.426 391.247 451.298 391.273 449.154 391.273Z" fill="#FFE492"/>
  </svg>
  <svg x="-364.61" y="215.04" width="2556.557" height="437.602" viewBox="0 0 2556.56 437.602" opacity="0.3">
    <path d="M457.406 437.602C435.923 437.602 412.606 434.896 386.375 429.375C359.217 423.661 332.367 415.626 309.687 408.517C302.718 406.329 295.764 404.11 289.036 401.964C270.233 395.965 252.469 390.297 235.721 385.67C175.576 369.049 115.823 352.823 58.0345 337.13C38.9193 331.939 19.1555 326.572 0 321.359L0.718134 320.406C19.8736 325.619 39.6374 330.986 58.7526 336.177C116.542 351.87 176.302 368.099 236.45 384.721C253.243 389.361 271.028 395.034 289.853 401.042C296.577 403.188 303.531 405.405 310.493 407.593C357.532 422.329 412.093 437.928 464.338 436.459C528.484 434.615 564.512 402.587 588.739 374.892C594.949 367.797 600.955 360.673 605.491 355.26C607.821 352.482 610.137 349.706 612.449 346.937C633.231 322.029 652.859 298.503 679.394 275.91C713.906 246.527 759.512 216.115 807.803 190.278C875.057 154.451 979.001 110.75 1092.27 106.01C1164.31 102.915 1230.61 116.198 1289.32 145.494C1315.7 158.662 1341.79 173.851 1373.92 194.749C1390.15 205.309 1406.26 216.254 1421.84 226.836C1462.38 254.368 1504.29 282.838 1551.51 306.602C1574.39 318.117 1598.38 329.315 1622.81 339.886C1652.39 352.674 1683.32 364.838 1714.73 376.043C1762.97 393.15 1823.02 414.444 1883.45 408.416C1916.59 405.18 1941.63 394.977 1957.89 378.093C1990.86 343.921 1983.79 288.016 1978.62 247.196C1977.17 235.74 1975.79 224.921 1975.53 216.192C1974.93 196.794 1974.98 171.216 1980.76 145.384C1990.73 100.619 2015.19 65.6265 2053.45 41.3831C2066.86 32.8419 2082.24 25.4211 2099.16 19.3256C2123.22 10.6435 2150.38 4.80328 2179.87 1.97014C2207.65 -0.697895 2236.89 -0.656067 2266.78 2.09562C2292 4.46867 2316.8 8.77011 2340.49 14.8767C2364.41 21.0448 2386.6 28.9036 2406.43 38.2352C2429.37 49.0174 2450.32 61.8666 2468.7 76.4286C2486.12 90.2288 2501.39 105.673 2514.08 122.338C2537.89 153.623 2552.58 189.254 2556.56 225.378L2554.82 225.447C2546.26 147.625 2491.78 79.6888 2405.36 39.0607C2366.18 20.6288 2316.87 7.86756 2266.52 3.13026C2204.44 -2.58225 2146.89 3.32838 2100.06 20.2237C2083.28 26.2686 2068.03 33.6299 2054.72 42.1029C2016.71 66.1857 1992.41 100.98 1982.49 145.525C1976.72 171.287 1976.67 196.814 1977.27 216.175C1977.54 224.872 1978.91 235.679 1980.36 247.119C1983.03 268.219 1986.05 292.137 1984.32 315.486C1982.31 342.675 1974.15 363.326 1959.39 378.619C1951.45 386.867 1941.42 393.603 1929.55 398.64C1916.68 404.102 1901.27 407.738 1883.74 409.451C1856.56 412.161 1827.3 409.726 1794.29 402.006C1765.59 395.294 1738.1 385.546 1713.85 376.948C1682.39 365.728 1651.43 353.545 1621.8 340.74C1597.33 330.154 1573.31 318.94 1550.4 307.41C1503.07 283.598 1461.12 255.097 1420.54 227.536C1404.97 216.956 1388.86 206.018 1372.64 195.467C1340.57 174.607 1314.53 159.446 1288.21 146.308C1229.84 117.18 1163.96 103.976 1092.39 107.052C979.606 111.773 876.006 155.34 808.954 191.059C760.757 216.844 715.247 247.192 680.808 276.514C654.347 299.042 634.748 322.535 613.999 347.406C611.687 350.177 609.371 352.953 607.041 355.731C602.501 361.149 596.492 368.279 590.274 375.381C565.835 403.322 529.444 435.636 464.415 437.505C462.103 437.569 459.762 437.602 457.406 437.602Z" fill="#FFE492"/>
  </svg>
  <svg x="-365.95" y="198.96" width="2555.788" height="484.374" viewBox="0 0 2555.79 484.374" opacity="0.3">
    <path d="M465.796 484.374C407.099 484.374 345.51 462.714 290.912 443.512C274.135 437.612 258.288 432.039 243.229 427.325L0 351.209L0.846411 350.234L244.075 426.35C259.175 431.074 275.04 436.655 291.839 442.563C348.548 462.507 412.825 485.113 473.205 483.154C538.765 481.03 573.302 446.306 596.067 416.295C603.512 406.479 610.701 396.491 617.655 386.832C636.675 360.415 656.34 333.099 682.512 307.676C703.294 287.489 729.111 266.319 757.17 246.456C787.952 224.665 820.91 204.672 855.121 187.035C892.842 167.591 931.197 151.505 969.116 139.228C1011.06 125.65 1052.38 116.786 1091.93 112.878C1171.18 105.052 1243.25 116.929 1306.14 148.181C1358.41 174.151 1402.83 206.264 1445.79 237.32C1483.19 264.353 1521.85 292.304 1565.64 316.197C1616.21 343.793 1670.95 369.26 1728.33 391.888C1776.68 410.954 1836.85 434.685 1898.86 429.351C1951.24 424.847 1981.52 403.793 1991.43 364.983C1999.87 331.972 1991.84 292.812 1985.4 261.348C1983.2 250.625 1981.13 240.497 1980.11 232.284C1974.49 187.006 1978.07 149.63 1991.06 118.021C1999.16 98.2987 2011.12 80.7187 2026.6 65.7693C2043.89 49.0699 2066.09 35.1486 2092.59 24.3928C2115.5 15.0877 2141.33 8.32952 2169.36 4.30545C2196.04 0.475105 2224.12 -0.808279 2252.84 0.490517C2309.32 3.04408 2364.57 15.4949 2408.41 35.547C2431.84 46.2654 2453.12 59.1609 2471.65 73.8725C2489.21 87.8158 2504.42 103.478 2516.86 120.429C2540.3 152.359 2553.76 188.697 2555.79 225.51L2553.96 225.548C2549.64 147.153 2494.81 76.4525 2407.3 36.4253C2314.36 -6.08271 2182.43 -10.7606 2093.6 25.3063C2005.61 61.0342 1969.08 128.71 1981.93 232.202C1982.94 240.389 1985.02 250.504 1987.21 261.214C1993.67 292.746 2001.71 331.989 1993.24 365.151C1988.62 383.213 1979.35 397.728 1965.67 408.297C1957.97 414.238 1948.7 419.095 1938.1 422.727C1926.82 426.592 1913.7 429.188 1899.12 430.443C1893.16 430.956 1887.09 431.213 1880.93 431.213C1858.45 431.213 1834.52 427.799 1808.29 420.882C1778.74 413.089 1750.23 401.845 1727.32 392.811C1669.86 370.15 1615.05 344.649 1564.4 317.014C1520.51 293.07 1481.81 265.086 1444.37 238.025C1401.47 207.008 1357.1 174.934 1304.96 149.031C1242.49 117.992 1170.92 106.193 1092.22 113.966C933.032 129.688 769.053 225.702 684.058 308.257C657.956 333.61 638.317 360.889 619.322 387.27C612.364 396.934 605.172 406.928 597.719 416.752C582.605 436.677 567.678 450.944 550.743 461.647C540.172 468.326 528.704 473.591 516.657 477.296C503.261 481.415 488.671 483.757 473.289 484.257C470.805 484.334 468.302 484.374 465.796 484.374Z" fill="#FFE492"/>
  </svg>
</svg>
