<svg preserveAspectRatio="xMidYMid meet" width="100%" height="100%" overflow="visible" style="display: block;" viewBox="0 0 59.2622 72.6503" fill="none" xmlns="http://www.w3.org/2000/svg">
<g id="Group">
<path id="Vector" d="M49.5382 40.7232C47.5397 30.6656 57.0861 24.767 57.0861 24.767C57.0861 24.767 53.3667 19.3859 47.1158 18.0015C40.868 16.6142 37.741 18.3476 34.6201 19.6476C31.4962 20.9509 29.9374 20.9509 29.9374 20.9509C25.4293 20.9509 22.1338 16.1777 13.5447 18.3507C7.62737 19.844 1.39817 26.6749 0.272694 34.8277C-0.852781 42.9836 1.57594 53.3903 6.25865 61.4558C10.9414 69.5275 15.7115 72.561 19.0972 72.6483C22.483 72.7324 25.8626 70.2227 29.9374 69.6116C34.0154 69.0068 36.5251 71.0895 40.525 72.215C44.5093 73.3374 45.9061 72.296 50.4953 68.3927C55.0969 64.4893 59.2622 53.2938 59.2622 53.2938C59.2622 53.2938 51.5366 50.787 49.5382 40.7232Z" fill="#1A3453"/>
<path id="Vector_2" d="M40.6928 11.4948C45.1198 6.98366 43.6203 0 43.6203 0C43.6203 0 37.4037 1.09122 33.2384 5.42474C29.0763 9.76143 29.7653 16.611 29.7653 16.611C29.7653 16.611 36.2656 16.0031 40.6928 11.4948Z" fill="#1A3453"/>
</g>
</svg>
