<svg preserveAspectRatio="xMidYMid meet" width="100%" height="100%" overflow="visible" style="display: block;" viewBox="0 0 72.6489 64.8657" fill="none" xmlns="http://www.w3.org/2000/svg">
<g id="Group">
<path id="Vector" d="M14.2694 50.4654V44.6274L24.1292 50.3356L36.324 38.9192V64.8657L14.2694 50.4654Z" fill="#0093EB"/>
<path id="Vector_2" d="M2.46875 35.028L15.3124 23.3521L36.329 36.3254L24.1341 47.7418L2.46875 35.028Z" fill="#0093EB"/>
<path id="Vector_3" d="M15.3085 23.3518L0 11.6758L22.0546 0L37.6225 10.3785L15.3085 23.3518Z" fill="#0093EB"/>
<path id="Vector_4" d="M58.3808 50.5949L36.3262 64.8655V38.9189L48.9103 49.8165L58.3808 43.8488V50.5949Z" fill="#0093EB"/>
<path id="Vector_5" d="M48.9103 47.2213L36.3262 36.3238L57.4726 22.8315L70.1864 33.7291L48.9103 47.2213Z" fill="#0093EB"/>
<path id="Vector_6" d="M57.4702 22.8329L37.6211 10.3785L53.189 0L72.6489 11.6758L57.4702 22.8329Z" fill="#0093EB"/>
</g>
</svg>
