<svg preserveAspectRatio="xMidYMid meet" width="100%" height="100%" overflow="visible" style="display: block;" viewBox="0 0 72.6512 63.8913" fill="none" xmlns="http://www.w3.org/2000/svg">
<g id="Group">
<g id="Drive_4_">
<path id="Vector" d="M36.2607 18.5707L21.1826 44.7232H21.14L29.8717 55.3717L10.2787 63.5923C9.89524 63.3793 9.59708 63.0812 9.42685 62.783L0.226441 45.7455C-0.242091 44.8083 0.141396 44.0843 0.269035 43.6584L24.931 1.06461C25.1012 0.809046 25.3568 0.553483 25.6977 0.340372H25.7403L38.3905 4.25914L36.2607 18.5707Z" fill="#59C36A"/>
</g>
<path id="Vector_2" d="M72.6502 44.7236L55.5701 55.3721L51.5237 44.7236L36.2609 18.571L25.7402 0.340608C26.0381 0.127639 26.4216 0 26.7625 0H45.9012C46.3272 0.127639 47.1791 0.0850456 47.7327 1.06485L72.3946 43.6587C72.5649 43.957 72.6502 44.3402 72.6502 44.7236V44.7236Z" fill="#FFDA2D"/>
<path id="Vector_3" d="M47.7335 1.06631C47.1801 0.0865105 46.3281 0.129104 45.902 0.00146484H36.2617V18.5724L51.5245 44.725L55.5709 55.3734L72.651 44.725C72.651 44.3415 72.5657 43.9583 72.3955 43.6601L47.7335 1.06631Z" fill="#FDBF00"/>
<path id="Vector_4" d="M72.6489 44.7241C72.6489 45.1073 72.5635 45.4908 72.4359 45.7464L63.2355 62.7839C62.8946 63.3376 62.0856 63.8913 61.3614 63.8913H11.2996C10.9587 63.8913 10.5754 63.7634 10.2773 63.5932L21.1388 44.7241H72.6489Z" fill="#4086F4"/>
<path id="Vector_5" d="M36.2617 63.8913H61.3637C62.0879 63.8913 62.897 63.3376 63.2378 62.7839L72.4382 45.7464C72.5658 45.4908 72.6512 45.1073 72.6512 44.7241H36.2619V63.8913H36.2617Z" fill="#4175DF"/>
</g>
</svg>
