<svg preserveAspectRatio="none" width="100%" height="100%" overflow="visible" style="display: block;" viewBox="0 0 48.7597 48.7589" fill="none" xmlns="http://www.w3.org/2000/svg">
<g id="Group">
<g id="Group_2">
<path id="Vector" d="M16.6759 0C6.84856 0 1.02688e-05 3.41261 1.02688e-05 6.47546C1.02688e-05 9.53831 6.84856 12.9509 16.6759 12.9509C26.5032 12.9509 33.3518 9.53821 33.3518 6.47546C33.3518 3.41271 26.5033 0 16.6759 0Z" fill="var(--fill-0, #FFE492)"/>
<path id="Vector_2" d="M0 36.2269V42.2834C0 45.3463 6.84855 48.7589 16.6759 48.7589C21.0803 48.7589 25.2377 48.0652 28.3821 46.8054C30.4315 45.9844 31.9484 44.9661 32.738 43.9079C31.2507 42.7443 29.5337 41.0713 28.0377 38.7631C24.7446 39.8174 20.8525 40.3707 16.676 40.3707C11.421 40.3707 6.50505 39.4654 2.83385 37.8215C1.76303 37.342 0.815879 36.8076 0 36.2269H0Z" fill="var(--fill-0, #FFE492)"/>
<path id="Vector_3" d="M0.000104186 24.3183L0 30.2922C0 33.355 6.84855 36.7676 16.6759 36.7676C20.1612 36.7676 23.5053 36.3305 26.3068 35.5218C25.2909 33.1731 24.6341 30.5803 24.3444 27.7746C21.948 28.2253 19.3365 28.4605 16.6759 28.4605C11.387 28.4605 6.44795 27.5449 2.76874 25.8824C1.72438 25.4105 0.799001 24.8864 0.000104186 24.3183V24.3183Z" fill="var(--fill-0, #FFE492)"/>
<path id="Vector_4" d="M0 12.4046V18.3825C0 21.4453 6.84855 24.858 16.6759 24.858C19.3043 24.858 21.8666 24.6103 24.1732 24.137C24.1764 23.5709 24.3453 22.0976 25.7093 21.7232C27.8588 21.133 29.3629 19.7165 29.4959 17.7735C29.5507 16.9735 30.5518 15.8526 31.2974 15.8638H33.3519V12.4046C32.5529 12.9727 31.6279 13.4969 30.5836 13.9693C26.8997 15.6359 21.9605 16.5538 16.676 16.5538C11.3915 16.5538 6.45233 15.6359 2.76843 13.9693C1.72396 13.4969 0.799001 12.9727 0 12.4046H0Z" fill="var(--fill-0, #FFE492)"/>
</g>
<path id="Vector_5" d="M43.6508 19.4668H32.9023C32.3014 21.9655 30.3801 24.0153 27.7813 24.9092C27.9834 36.9031 34.8775 41.4766 37.917 42.9105C38.0908 42.9924 38.2966 42.9836 38.468 42.8873C41.5193 41.1678 48.4377 36.0496 48.7597 24.905C46.1673 24.0091 44.2509 21.9617 43.6508 19.4668V19.4668ZM37.6326 35.086C36.9032 35.8363 35.6476 35.7951 34.9689 34.9987L31.5439 30.9799L34.287 28.6432L36.4282 31.1557L42.4017 25.0118L44.9858 27.523L37.6326 35.086Z" fill="var(--fill-0, #FFE492)"/>
</g>
</svg>
