<svg preserveAspectRatio="none" width="100%" height="100%" overflow="visible" style="display: block;" viewBox="0 0 51 39.0046" fill="none" xmlns="http://www.w3.org/2000/svg">
<g id="Group">
<g id="Group_2">
<path id="Vector" d="M0 3.18085V12.2624C0 15.0284 3.45437 16.5035 5.56538 14.5674L15.6406 5.48582C17.8476 3.50355 16.4083 0 13.3857 0H3.31044C1.4873 0 0 1.42908 0 3.18085Z" fill="var(--fill-0, #5986EF)"/>
<path id="Vector_2" d="M47.6896 0H37.6143C34.6397 0 33.1524 3.50355 35.3594 5.48582L45.4346 14.5674C47.5456 16.4574 51 15.0284 51 12.2624V3.18085C51 1.42908 49.5127 0 47.6896 0Z" fill="var(--fill-0, #5986EF)"/>
</g>
<path id="Vector_3" d="M27.7789 22.1738L45.4346 38.1241C47.5456 40.0142 51 38.5851 51 35.8191V26.6454C51 25.7695 50.6162 24.9397 49.9445 24.3404L27.7789 4.28723C26.4835 3.13475 24.5165 3.13475 23.2211 4.28723L1.0555 24.3404C0.383819 24.9397 0 25.7695 0 26.6454V35.8191C0 38.5851 3.45437 40.0603 5.56538 38.1241L23.2211 22.1738C24.5165 21.0213 26.4835 21.0213 27.7789 22.1738Z" fill="var(--fill-0, #5986EF)"/>
</g>
</svg>
