<svg preserveAspectRatio="none" width="100%" height="100%" overflow="visible" style="display: block;" viewBox="0 0 38.8548 48.7589" fill="none" xmlns="http://www.w3.org/2000/svg">
<g id="Group">
<path id="Vector" d="M33.1408 17.9037H29.709V10.0727C29.709 4.51858 25.095 0 19.4239 0C13.7527 0 9.13878 4.51858 9.13878 10.0727V17.9037H5.71394C2.56327 17.9037 0 20.4669 0 23.6176V43.045C0 46.1957 2.56327 48.7589 5.71394 48.7589H33.1408C36.2915 48.7589 38.8548 46.1957 38.8548 43.045V23.6176C38.8548 20.4669 36.2915 17.9037 33.1408 17.9037ZM12.9481 10.0727C12.9481 6.61903 15.8531 3.80929 19.4239 3.80929C22.9946 3.80929 25.8997 6.61903 25.8997 10.0727V17.9037H12.9481V10.0727V10.0727ZM35.0455 43.045C35.0455 44.0952 34.1911 44.9497 33.1408 44.9497H5.71394C4.66372 44.9497 3.80929 44.0952 3.80929 43.045V23.6176C3.80929 22.5674 4.66372 21.713 5.71394 21.713H33.1408C34.1911 21.713 35.0455 22.5674 35.0455 23.6176V43.045Z" fill="var(--fill-0, #4F9CF9)"/>
</g>
</svg>
